<svg width="339" height="472" viewBox="0 0 339 472" fill="none" xmlns="http://www.w3.org/2000/svg">
<g filter="url(#filter0_d_16_2)">
<rect x="8" y="6" width="322.649" height="456" rx="8" fill="white"/>
<path d="M154.456 41.152V44.44H147.592V47.992H152.728V51.184H147.592V58H143.488V41.152H154.456ZM160.717 46.84C161.197 46.104 161.797 45.528 162.517 45.112C163.237 44.68 164.037 44.464 164.917 44.464V48.808H163.789C162.765 48.808 161.997 49.032 161.485 49.48C160.973 49.912 160.717 50.68 160.717 51.784V58H156.613V44.608H160.717V46.84ZM179.503 51.088C179.503 51.472 179.479 51.872 179.431 52.288H170.143C170.207 53.12 170.471 53.76 170.935 54.208C171.415 54.64 171.999 54.856 172.687 54.856C173.711 54.856 174.423 54.424 174.823 53.56H179.191C178.967 54.44 178.559 55.232 177.967 55.936C177.391 56.64 176.663 57.192 175.783 57.592C174.903 57.992 173.919 58.192 172.831 58.192C171.519 58.192 170.351 57.912 169.327 57.352C168.303 56.792 167.503 55.992 166.927 54.952C166.351 53.912 166.063 52.696 166.063 51.304C166.063 49.912 166.343 48.696 166.903 47.656C167.479 46.616 168.279 45.816 169.303 45.256C170.327 44.696 171.503 44.416 172.831 44.416C174.127 44.416 175.279 44.688 176.287 45.232C177.295 45.776 178.079 46.552 178.639 47.56C179.215 48.568 179.503 49.744 179.503 51.088ZM175.303 50.008C175.303 49.304 175.063 48.744 174.583 48.328C174.103 47.912 173.503 47.704 172.783 47.704C172.095 47.704 171.511 47.904 171.031 48.304C170.567 48.704 170.279 49.272 170.167 50.008H175.303ZM194.292 51.088C194.292 51.472 194.268 51.872 194.22 52.288H184.932C184.996 53.12 185.26 53.76 185.724 54.208C186.204 54.64 186.788 54.856 187.476 54.856C188.5 54.856 189.212 54.424 189.612 53.56H193.98C193.756 54.44 193.348 55.232 192.756 55.936C192.18 56.64 191.452 57.192 190.572 57.592C189.692 57.992 188.708 58.192 187.62 58.192C186.308 58.192 185.14 57.912 184.116 57.352C183.092 56.792 182.292 55.992 181.716 54.952C181.14 53.912 180.852 52.696 180.852 51.304C180.852 49.912 181.132 48.696 181.692 47.656C182.268 46.616 183.068 45.816 184.092 45.256C185.116 44.696 186.292 44.416 187.62 44.416C188.916 44.416 190.068 44.688 191.076 45.232C192.084 45.776 192.868 46.552 193.428 47.56C194.004 48.568 194.292 49.744 194.292 51.088ZM190.092 50.008C190.092 49.304 189.852 48.744 189.372 48.328C188.892 47.912 188.292 47.704 187.572 47.704C186.884 47.704 186.3 47.904 185.82 48.304C185.356 48.704 185.068 49.272 184.956 50.008H190.092Z" fill="#22343D"/>
<path d="M87.816 98.256C88.2213 98.32 88.5893 98.4853 88.92 98.752C89.2613 99.0187 89.528 99.3493 89.72 99.744C89.9227 100.139 90.024 100.56 90.024 101.008C90.024 101.573 89.88 102.085 89.592 102.544C89.304 102.992 88.8827 103.349 88.328 103.616C87.784 103.872 87.1387 104 86.392 104H82.232V92.848H86.232C86.9893 92.848 87.6347 92.976 88.168 93.232C88.7013 93.4773 89.1013 93.8133 89.368 94.24C89.6347 94.6667 89.768 95.1467 89.768 95.68C89.768 96.3413 89.5867 96.8907 89.224 97.328C88.872 97.7547 88.4027 98.064 87.816 98.256ZM83.688 97.664H86.136C86.8187 97.664 87.3467 97.504 87.72 97.184C88.0933 96.864 88.28 96.4213 88.28 95.856C88.28 95.2907 88.0933 94.848 87.72 94.528C87.3467 94.208 86.808 94.048 86.104 94.048H83.688V97.664ZM86.264 102.8C86.9893 102.8 87.5547 102.629 87.96 102.288C88.3653 101.947 88.568 101.472 88.568 100.864C88.568 100.245 88.3547 99.76 87.928 99.408C87.5013 99.0453 86.9307 98.864 86.216 98.864H83.688V102.8H86.264ZM93.5005 96.656C93.7565 96.1547 94.1192 95.7653 94.5885 95.488C95.0685 95.2107 95.6498 95.072 96.3325 95.072V96.576H95.9485C94.3165 96.576 93.5005 97.4613 93.5005 99.232V104H92.0445V95.232H93.5005V96.656ZM98.7653 93.808C98.4879 93.808 98.2533 93.712 98.0613 93.52C97.8693 93.328 97.7733 93.0933 97.7733 92.816C97.7733 92.5387 97.8693 92.304 98.0613 92.112C98.2533 91.92 98.4879 91.824 98.7653 91.824C99.0319 91.824 99.2559 91.92 99.4373 92.112C99.6293 92.304 99.7253 92.5387 99.7253 92.816C99.7253 93.0933 99.6293 93.328 99.4373 93.52C99.2559 93.712 99.0319 93.808 98.7653 93.808ZM99.4693 95.232V104H98.0133V95.232H99.4693ZM109.951 99.28C109.951 99.5573 109.935 99.8507 109.903 100.16H102.895C102.948 101.024 103.241 101.701 103.775 102.192C104.319 102.672 104.975 102.912 105.743 102.912C106.372 102.912 106.895 102.768 107.311 102.48C107.737 102.181 108.036 101.787 108.207 101.296H109.775C109.54 102.139 109.071 102.827 108.367 103.36C107.663 103.883 106.788 104.144 105.743 104.144C104.911 104.144 104.164 103.957 103.503 103.584C102.852 103.211 102.34 102.683 101.967 102C101.593 101.307 101.407 100.507 101.407 99.6C101.407 98.6933 101.588 97.8987 101.951 97.216C102.313 96.5333 102.82 96.0107 103.471 95.648C104.132 95.2747 104.889 95.088 105.743 95.088C106.575 95.088 107.311 95.2693 107.951 95.632C108.591 95.9947 109.081 96.496 109.423 97.136C109.775 97.7653 109.951 98.48 109.951 99.28ZM108.447 98.976C108.447 98.4213 108.324 97.9467 108.079 97.552C107.833 97.1467 107.497 96.8427 107.071 96.64C106.655 96.4267 106.191 96.32 105.679 96.32C104.943 96.32 104.313 96.5547 103.791 97.024C103.279 97.4933 102.985 98.144 102.911 98.976H108.447ZM115.441 96.432H113.601V104H112.145V96.432H111.009V95.232H112.145V94.608C112.145 93.6267 112.395 92.912 112.897 92.464C113.409 92.0053 114.225 91.776 115.345 91.776V92.992C114.705 92.992 114.251 93.12 113.985 93.376C113.729 93.6213 113.601 94.032 113.601 94.608V95.232H115.441V96.432ZM122.86 96.848C123.148 96.3467 123.575 95.9307 124.14 95.6C124.716 95.2587 125.383 95.088 126.14 95.088C126.919 95.088 127.623 95.2747 128.252 95.648C128.892 96.0213 129.393 96.5493 129.756 97.232C130.119 97.904 130.3 98.688 130.3 99.584C130.3 100.469 130.119 101.259 129.756 101.952C129.393 102.645 128.892 103.184 128.252 103.568C127.623 103.952 126.919 104.144 126.14 104.144C125.393 104.144 124.732 103.979 124.156 103.648C123.591 103.307 123.159 102.885 122.86 102.384V108.16H121.404V95.232H122.86V96.848ZM128.812 99.584C128.812 98.9227 128.679 98.3467 128.412 97.856C128.145 97.3653 127.783 96.992 127.324 96.736C126.876 96.48 126.38 96.352 125.836 96.352C125.303 96.352 124.807 96.4853 124.348 96.752C123.9 97.008 123.537 97.3867 123.26 97.888C122.993 98.3787 122.86 98.9493 122.86 99.6C122.86 100.261 122.993 100.843 123.26 101.344C123.537 101.835 123.9 102.213 124.348 102.48C124.807 102.736 125.303 102.864 125.836 102.864C126.38 102.864 126.876 102.736 127.324 102.48C127.783 102.213 128.145 101.835 128.412 101.344C128.679 100.843 128.812 100.256 128.812 99.584ZM133.672 96.656C133.928 96.1547 134.291 95.7653 134.76 95.488C135.24 95.2107 135.822 95.072 136.504 95.072V96.576H136.12C134.488 96.576 133.672 97.4613 133.672 99.232V104H132.216V95.232H133.672V96.656ZM138.937 93.808C138.66 93.808 138.425 93.712 138.233 93.52C138.041 93.328 137.945 93.0933 137.945 92.816C137.945 92.5387 138.041 92.304 138.233 92.112C138.425 91.92 138.66 91.824 138.937 91.824C139.204 91.824 139.428 91.92 139.609 92.112C139.801 92.304 139.897 92.5387 139.897 92.816C139.897 93.0933 139.801 93.328 139.609 93.52C139.428 93.712 139.204 93.808 138.937 93.808ZM139.641 95.232V104H138.185V95.232H139.641ZM141.579 99.6C141.579 98.6933 141.76 97.904 142.123 97.232C142.485 96.5493 142.987 96.0213 143.627 95.648C144.277 95.2747 145.019 95.088 145.851 95.088C146.928 95.088 147.813 95.3493 148.507 95.872C149.211 96.3947 149.675 97.12 149.899 98.048H148.331C148.181 97.5147 147.888 97.0933 147.451 96.784C147.024 96.4747 146.491 96.32 145.851 96.32C145.019 96.32 144.347 96.608 143.835 97.184C143.323 97.7493 143.067 98.5547 143.067 99.6C143.067 100.656 143.323 101.472 143.835 102.048C144.347 102.624 145.019 102.912 145.851 102.912C146.491 102.912 147.024 102.763 147.451 102.464C147.877 102.165 148.171 101.739 148.331 101.184H149.899C149.664 102.08 149.195 102.8 148.491 103.344C147.787 103.877 146.907 104.144 145.851 104.144C145.019 104.144 144.277 103.957 143.627 103.584C142.987 103.211 142.485 102.683 142.123 102C141.76 101.317 141.579 100.517 141.579 99.6ZM159.841 99.28C159.841 99.5573 159.825 99.8507 159.793 100.16H152.785C152.839 101.024 153.132 101.701 153.665 102.192C154.209 102.672 154.865 102.912 155.633 102.912C156.263 102.912 156.785 102.768 157.201 102.48C157.628 102.181 157.927 101.787 158.097 101.296H159.665C159.431 102.139 158.961 102.827 158.257 103.36C157.553 103.883 156.679 104.144 155.633 104.144C154.801 104.144 154.055 103.957 153.393 103.584C152.743 103.211 152.231 102.683 151.857 102C151.484 101.307 151.297 100.507 151.297 99.6C151.297 98.6933 151.479 97.8987 151.841 97.216C152.204 96.5333 152.711 96.0107 153.361 95.648C154.023 95.2747 154.78 95.088 155.633 95.088C156.465 95.088 157.201 95.2693 157.841 95.632C158.481 95.9947 158.972 96.496 159.313 97.136C159.665 97.7653 159.841 98.48 159.841 99.28ZM158.337 98.976C158.337 98.4213 158.215 97.9467 157.969 97.552C157.724 97.1467 157.388 96.8427 156.961 96.64C156.545 96.4267 156.081 96.32 155.569 96.32C154.833 96.32 154.204 96.5547 153.681 97.024C153.169 97.4933 152.876 98.144 152.801 98.976H158.337ZM165.485 99.584C165.485 98.688 165.666 97.904 166.029 97.232C166.392 96.5493 166.888 96.0213 167.517 95.648C168.157 95.2747 168.872 95.088 169.661 95.088C170.344 95.088 170.978 95.248 171.565 95.568C172.152 95.8773 172.6 96.288 172.909 96.8V92.16H174.381V104H172.909V102.352C172.621 102.875 172.194 103.307 171.629 103.648C171.064 103.979 170.402 104.144 169.645 104.144C168.866 104.144 168.157 103.952 167.517 103.568C166.888 103.184 166.392 102.645 166.029 101.952C165.666 101.259 165.485 100.469 165.485 99.584ZM172.909 99.6C172.909 98.9387 172.776 98.3627 172.509 97.872C172.242 97.3813 171.88 97.008 171.421 96.752C170.973 96.4853 170.477 96.352 169.933 96.352C169.389 96.352 168.893 96.48 168.445 96.736C167.997 96.992 167.64 97.3653 167.373 97.856C167.106 98.3467 166.973 98.9227 166.973 99.584C166.973 100.256 167.106 100.843 167.373 101.344C167.64 101.835 167.997 102.213 168.445 102.48C168.893 102.736 169.389 102.864 169.933 102.864C170.477 102.864 170.973 102.736 171.421 102.48C171.88 102.213 172.242 101.835 172.509 101.344C172.776 100.843 172.909 100.261 172.909 99.6ZM184.841 99.28C184.841 99.5573 184.825 99.8507 184.793 100.16H177.785C177.839 101.024 178.132 101.701 178.665 102.192C179.209 102.672 179.865 102.912 180.633 102.912C181.263 102.912 181.785 102.768 182.201 102.48C182.628 102.181 182.927 101.787 183.097 101.296H184.665C184.431 102.139 183.961 102.827 183.257 103.36C182.553 103.883 181.679 104.144 180.633 104.144C179.801 104.144 179.055 103.957 178.393 103.584C177.743 103.211 177.231 102.683 176.857 102C176.484 101.307 176.297 100.507 176.297 99.6C176.297 98.6933 176.479 97.8987 176.841 97.216C177.204 96.5333 177.711 96.0107 178.361 95.648C179.023 95.2747 179.78 95.088 180.633 95.088C181.465 95.088 182.201 95.2693 182.841 95.632C183.481 95.9947 183.972 96.496 184.313 97.136C184.665 97.7653 184.841 98.48 184.841 99.28ZM183.337 98.976C183.337 98.4213 183.215 97.9467 182.969 97.552C182.724 97.1467 182.388 96.8427 181.961 96.64C181.545 96.4267 181.081 96.32 180.569 96.32C179.833 96.32 179.204 96.5547 178.681 97.024C178.169 97.4933 177.876 98.144 177.801 98.976H183.337ZM189.867 104.144C189.195 104.144 188.593 104.032 188.059 103.808C187.526 103.573 187.105 103.253 186.795 102.848C186.486 102.432 186.315 101.957 186.283 101.424H187.787C187.83 101.861 188.033 102.219 188.395 102.496C188.769 102.773 189.254 102.912 189.851 102.912C190.406 102.912 190.843 102.789 191.163 102.544C191.483 102.299 191.643 101.989 191.643 101.616C191.643 101.232 191.473 100.949 191.131 100.768C190.79 100.576 190.262 100.389 189.547 100.208C188.897 100.037 188.363 99.8667 187.947 99.696C187.542 99.5147 187.19 99.2533 186.891 98.912C186.603 98.56 186.459 98.1013 186.459 97.536C186.459 97.088 186.593 96.6773 186.859 96.304C187.126 95.9307 187.505 95.6373 187.995 95.424C188.486 95.2 189.046 95.088 189.675 95.088C190.646 95.088 191.43 95.3333 192.027 95.824C192.625 96.3147 192.945 96.9867 192.987 97.84H191.531C191.499 97.3813 191.313 97.0133 190.971 96.736C190.641 96.4587 190.193 96.32 189.627 96.32C189.105 96.32 188.689 96.432 188.379 96.656C188.07 96.88 187.915 97.1733 187.915 97.536C187.915 97.824 188.006 98.064 188.187 98.256C188.379 98.4373 188.614 98.5867 188.891 98.704C189.179 98.8107 189.574 98.9333 190.075 99.072C190.705 99.2427 191.217 99.4133 191.611 99.584C192.006 99.744 192.342 99.9893 192.619 100.32C192.907 100.651 193.057 101.083 193.067 101.616C193.067 102.096 192.934 102.528 192.667 102.912C192.401 103.296 192.022 103.6 191.531 103.824C191.051 104.037 190.497 104.144 189.867 104.144ZM194.579 99.6C194.579 98.6933 194.76 97.904 195.123 97.232C195.485 96.5493 195.987 96.0213 196.627 95.648C197.277 95.2747 198.019 95.088 198.851 95.088C199.928 95.088 200.813 95.3493 201.507 95.872C202.211 96.3947 202.675 97.12 202.899 98.048H201.331C201.181 97.5147 200.888 97.0933 200.451 96.784C200.024 96.4747 199.491 96.32 198.851 96.32C198.019 96.32 197.347 96.608 196.835 97.184C196.323 97.7493 196.067 98.5547 196.067 99.6C196.067 100.656 196.323 101.472 196.835 102.048C197.347 102.624 198.019 102.912 198.851 102.912C199.491 102.912 200.024 102.763 200.451 102.464C200.877 102.165 201.171 101.739 201.331 101.184H202.899C202.664 102.08 202.195 102.8 201.491 103.344C200.787 103.877 199.907 104.144 198.851 104.144C198.019 104.144 197.277 103.957 196.627 103.584C195.987 103.211 195.485 102.683 195.123 102C194.76 101.317 194.579 100.517 194.579 99.6ZM206.297 96.656C206.553 96.1547 206.916 95.7653 207.385 95.488C207.865 95.2107 208.447 95.072 209.129 95.072V96.576H208.745C207.113 96.576 206.297 97.4613 206.297 99.232V104H204.841V95.232H206.297V96.656ZM211.562 93.808C211.285 93.808 211.05 93.712 210.858 93.52C210.666 93.328 210.57 93.0933 210.57 92.816C210.57 92.5387 210.666 92.304 210.858 92.112C211.05 91.92 211.285 91.824 211.562 91.824C211.829 91.824 212.053 91.92 212.234 92.112C212.426 92.304 212.522 92.5387 212.522 92.816C212.522 93.0933 212.426 93.328 212.234 93.52C212.053 93.712 211.829 93.808 211.562 93.808ZM212.266 95.232V104H210.81V95.232H212.266ZM216.204 96.848C216.492 96.3467 216.918 95.9307 217.484 95.6C218.06 95.2587 218.726 95.088 219.484 95.088C220.262 95.088 220.966 95.2747 221.596 95.648C222.236 96.0213 222.737 96.5493 223.1 97.232C223.462 97.904 223.644 98.688 223.644 99.584C223.644 100.469 223.462 101.259 223.1 101.952C222.737 102.645 222.236 103.184 221.596 103.568C220.966 103.952 220.262 104.144 219.484 104.144C218.737 104.144 218.076 103.979 217.5 103.648C216.934 103.307 216.502 102.885 216.204 102.384V108.16H214.748V95.232H216.204V96.848ZM222.156 99.584C222.156 98.9227 222.022 98.3467 221.756 97.856C221.489 97.3653 221.126 96.992 220.668 96.736C220.22 96.48 219.724 96.352 219.18 96.352C218.646 96.352 218.15 96.4853 217.692 96.752C217.244 97.008 216.881 97.3867 216.604 97.888C216.337 98.3787 216.204 98.9493 216.204 99.6C216.204 100.261 216.337 100.843 216.604 101.344C216.881 101.835 217.244 102.213 217.692 102.48C218.15 102.736 218.646 102.864 219.18 102.864C219.724 102.864 220.22 102.736 220.668 102.48C221.126 102.213 221.489 101.835 221.756 101.344C222.022 100.843 222.156 100.256 222.156 99.584ZM227.336 96.432V101.6C227.336 102.027 227.427 102.331 227.608 102.512C227.789 102.683 228.104 102.768 228.552 102.768H229.624V104H228.312C227.501 104 226.893 103.813 226.488 103.44C226.083 103.067 225.88 102.453 225.88 101.6V96.432H224.744V95.232H225.88V93.024H227.336V95.232H229.624V96.432H227.336ZM232.14 93.808C231.863 93.808 231.628 93.712 231.436 93.52C231.244 93.328 231.148 93.0933 231.148 92.816C231.148 92.5387 231.244 92.304 231.436 92.112C231.628 91.92 231.863 91.824 232.14 91.824C232.407 91.824 232.631 91.92 232.812 92.112C233.004 92.304 233.1 92.5387 233.1 92.816C233.1 93.0933 233.004 93.328 232.812 93.52C232.631 93.712 232.407 93.808 232.14 93.808ZM232.844 95.232V104H231.388V95.232H232.844ZM239.15 104.144C238.328 104.144 237.582 103.957 236.91 103.584C236.248 103.211 235.726 102.683 235.342 102C234.968 101.307 234.782 100.507 234.782 99.6C234.782 98.704 234.974 97.9147 235.358 97.232C235.752 96.5387 236.286 96.0107 236.958 95.648C237.63 95.2747 238.382 95.088 239.214 95.088C240.046 95.088 240.798 95.2747 241.47 95.648C242.142 96.0107 242.67 96.5333 243.054 97.216C243.448 97.8987 243.646 98.6933 243.646 99.6C243.646 100.507 243.443 101.307 243.038 102C242.643 102.683 242.104 103.211 241.422 103.584C240.739 103.957 239.982 104.144 239.15 104.144ZM239.15 102.864C239.672 102.864 240.163 102.741 240.622 102.496C241.08 102.251 241.448 101.883 241.726 101.392C242.014 100.901 242.158 100.304 242.158 99.6C242.158 98.896 242.019 98.2987 241.742 97.808C241.464 97.3173 241.102 96.9547 240.654 96.72C240.206 96.4747 239.72 96.352 239.198 96.352C238.664 96.352 238.174 96.4747 237.726 96.72C237.288 96.9547 236.936 97.3173 236.67 97.808C236.403 98.2987 236.27 98.896 236.27 99.6C236.27 100.315 236.398 100.917 236.654 101.408C236.92 101.899 237.272 102.267 237.71 102.512C238.147 102.747 238.627 102.864 239.15 102.864ZM249.832 95.072C250.899 95.072 251.763 95.3973 252.424 96.048C253.085 96.688 253.416 97.616 253.416 98.832V104H251.976V99.04C251.976 98.1653 251.757 97.4987 251.32 97.04C250.883 96.5707 250.285 96.336 249.528 96.336C248.76 96.336 248.147 96.576 247.688 97.056C247.24 97.536 247.016 98.2347 247.016 99.152V104H245.56V95.232H247.016V96.48C247.304 96.032 247.693 95.6853 248.184 95.44C248.685 95.1947 249.235 95.072 249.832 95.072Z" fill="#22343D"/>
<g clip-path="url(#clip0_16_2)">
<path d="M155.895 184.182H157.906L157.923 182.213C161.614 181.932 163.753 179.972 163.761 177.014C163.753 174.108 161.562 172.565 158.528 171.884L158.026 171.764L158.06 167.503C159.193 167.767 159.884 168.491 159.986 169.565H163.523C163.48 166.744 161.375 164.724 158.094 164.366L158.111 162.364H156.099L156.082 164.349C152.75 164.673 150.398 166.685 150.415 169.591C150.406 172.165 152.222 173.639 155.17 174.347L155.989 174.551L155.946 179.06C154.557 178.795 153.619 177.943 153.526 176.52H149.955C150.04 179.963 152.298 181.889 155.912 182.205L155.895 184.182ZM157.957 179.06L157.991 175.08C159.312 175.497 160.028 176.034 160.037 177.006C160.028 178.037 159.244 178.804 157.957 179.06ZM156.014 171.244C154.949 170.878 154.182 170.324 154.199 169.344C154.199 168.432 154.847 167.724 156.048 167.477L156.014 171.244Z" fill="#02897A"/>
</g>
<path d="M157.688 198.112C157.688 199.04 157.368 199.813 156.728 200.432C156.099 201.04 155.133 201.344 153.832 201.344H151.688V206H150.232V194.848H153.832C155.091 194.848 156.045 195.152 156.696 195.76C157.357 196.368 157.688 197.152 157.688 198.112ZM153.832 200.144C154.643 200.144 155.24 199.968 155.624 199.616C156.008 199.264 156.2 198.763 156.2 198.112C156.2 196.736 155.411 196.048 153.832 196.048H151.688V200.144H153.832ZM167.598 201.28C167.598 201.557 167.582 201.851 167.55 202.16H160.542C160.595 203.024 160.888 203.701 161.422 204.192C161.966 204.672 162.622 204.912 163.39 204.912C164.019 204.912 164.542 204.768 164.958 204.48C165.384 204.181 165.683 203.787 165.854 203.296H167.422C167.187 204.139 166.718 204.827 166.014 205.36C165.31 205.883 164.435 206.144 163.39 206.144C162.558 206.144 161.811 205.957 161.15 205.584C160.499 205.211 159.987 204.683 159.614 204C159.24 203.307 159.054 202.507 159.054 201.6C159.054 200.693 159.235 199.899 159.598 199.216C159.96 198.533 160.467 198.011 161.118 197.648C161.779 197.275 162.536 197.088 163.39 197.088C164.222 197.088 164.958 197.269 165.598 197.632C166.238 197.995 166.728 198.496 167.07 199.136C167.422 199.765 167.598 200.48 167.598 201.28ZM166.094 200.976C166.094 200.421 165.971 199.947 165.726 199.552C165.48 199.147 165.144 198.843 164.718 198.64C164.302 198.427 163.838 198.32 163.326 198.32C162.59 198.32 161.96 198.555 161.438 199.024C160.926 199.493 160.632 200.144 160.558 200.976H166.094ZM171.076 198.656C171.332 198.155 171.694 197.765 172.164 197.488C172.644 197.211 173.225 197.072 173.908 197.072V198.576H173.524C171.892 198.576 171.076 199.461 171.076 201.232V206H169.62V197.232H171.076V198.656ZM185.494 190.928L181.11 208.72H179.67L184.038 190.928H185.494ZM202.673 197.072C203.356 197.072 203.964 197.216 204.497 197.504C205.03 197.781 205.452 198.203 205.761 198.768C206.07 199.333 206.225 200.021 206.225 200.832V206H204.785V201.04C204.785 200.165 204.566 199.499 204.129 199.04C203.702 198.571 203.121 198.336 202.385 198.336C201.628 198.336 201.025 198.581 200.577 199.072C200.129 199.552 199.905 200.251 199.905 201.168V206H198.465V201.04C198.465 200.165 198.246 199.499 197.809 199.04C197.382 198.571 196.801 198.336 196.065 198.336C195.308 198.336 194.705 198.581 194.257 199.072C193.809 199.552 193.585 200.251 193.585 201.168V206H192.129V197.232H193.585V198.496C193.873 198.037 194.257 197.685 194.737 197.44C195.228 197.195 195.766 197.072 196.353 197.072C197.089 197.072 197.74 197.237 198.305 197.568C198.87 197.899 199.292 198.384 199.569 199.024C199.814 198.405 200.22 197.925 200.785 197.584C201.35 197.243 201.98 197.072 202.673 197.072ZM212.537 206.144C211.716 206.144 210.969 205.957 210.297 205.584C209.636 205.211 209.113 204.683 208.729 204C208.356 203.307 208.169 202.507 208.169 201.6C208.169 200.704 208.361 199.915 208.745 199.232C209.14 198.539 209.673 198.011 210.345 197.648C211.017 197.275 211.769 197.088 212.601 197.088C213.433 197.088 214.185 197.275 214.857 197.648C215.529 198.011 216.057 198.533 216.441 199.216C216.836 199.899 217.033 200.693 217.033 201.6C217.033 202.507 216.831 203.307 216.425 204C216.031 204.683 215.492 205.211 214.809 205.584C214.127 205.957 213.369 206.144 212.537 206.144ZM212.537 204.864C213.06 204.864 213.551 204.741 214.009 204.496C214.468 204.251 214.836 203.883 215.113 203.392C215.401 202.901 215.545 202.304 215.545 201.6C215.545 200.896 215.407 200.299 215.129 199.808C214.852 199.317 214.489 198.955 214.041 198.72C213.593 198.475 213.108 198.352 212.585 198.352C212.052 198.352 211.561 198.475 211.113 198.72C210.676 198.955 210.324 199.317 210.057 199.808C209.791 200.299 209.657 200.896 209.657 201.6C209.657 202.315 209.785 202.917 210.041 203.408C210.308 203.899 210.66 204.267 211.097 204.512C211.535 204.747 212.015 204.864 212.537 204.864ZM223.32 197.072C224.386 197.072 225.25 197.397 225.912 198.048C226.573 198.688 226.904 199.616 226.904 200.832V206H225.464V201.04C225.464 200.165 225.245 199.499 224.808 199.04C224.37 198.571 223.773 198.336 223.016 198.336C222.248 198.336 221.634 198.576 221.176 199.056C220.728 199.536 220.504 200.235 220.504 201.152V206H219.048V197.232H220.504V198.48C220.792 198.032 221.181 197.685 221.672 197.44C222.173 197.195 222.722 197.072 223.32 197.072ZM231.158 198.432V203.6C231.158 204.027 231.249 204.331 231.43 204.512C231.611 204.683 231.926 204.768 232.374 204.768H233.446V206H232.134C231.323 206 230.715 205.813 230.31 205.44C229.905 205.067 229.702 204.453 229.702 203.6V198.432H228.566V197.232H229.702V195.024H231.158V197.232H233.446V198.432H231.158ZM239.662 197.072C240.323 197.072 240.921 197.216 241.454 197.504C241.987 197.781 242.403 198.203 242.702 198.768C243.011 199.333 243.166 200.021 243.166 200.832V206H241.726V201.04C241.726 200.165 241.507 199.499 241.07 199.04C240.633 198.571 240.035 198.336 239.278 198.336C238.51 198.336 237.897 198.576 237.438 199.056C236.99 199.536 236.766 200.235 236.766 201.152V206H235.31V194.16H236.766V198.48C237.054 198.032 237.449 197.685 237.95 197.44C238.462 197.195 239.033 197.072 239.662 197.072Z" fill="#AFAFAF"/>
<path d="M94.6309 182.5C94.6309 173.785 96.3029 166.92 99.6469 161.904C103.042 156.888 108.488 154.38 115.987 154.38C123.486 154.38 128.907 156.888 132.251 161.904C135.646 166.92 137.343 173.785 137.343 182.5C137.343 191.316 135.646 198.232 132.251 203.248C128.907 208.264 123.486 210.772 115.987 210.772C108.488 210.772 103.042 208.264 99.6469 203.248C96.3029 198.232 94.6309 191.316 94.6309 182.5ZM124.575 182.5C124.575 177.383 124.018 173.456 122.903 170.72C121.788 167.933 119.483 166.54 115.987 166.54C112.491 166.54 110.186 167.933 109.071 170.72C107.956 173.456 107.399 177.383 107.399 182.5C107.399 185.945 107.602 188.808 108.007 191.088C108.412 193.317 109.223 195.141 110.439 196.56C111.706 197.928 113.555 198.612 115.987 198.612C118.419 198.612 120.243 197.928 121.459 196.56C122.726 195.141 123.562 193.317 123.967 191.088C124.372 188.808 124.575 185.945 124.575 182.5Z" fill="#02897A"/>
<rect x="99" y="386" width="139" height="44" rx="8" fill="#02897A"/>
<path d="M124.578 414.18C123.294 414.18 122.136 413.904 121.104 413.352C120.072 412.788 119.262 412.014 118.674 411.03C118.086 410.034 117.792 408.924 117.792 407.7C117.792 406.476 118.086 405.372 118.674 404.388C119.262 403.392 120.072 402.618 121.104 402.066C122.136 401.502 123.294 401.22 124.578 401.22C125.862 401.22 127.02 401.502 128.052 402.066C129.084 402.618 129.894 403.386 130.482 404.37C131.07 405.354 131.364 406.464 131.364 407.7C131.364 408.936 131.07 410.046 130.482 411.03C129.894 412.014 129.084 412.788 128.052 413.352C127.02 413.904 125.862 414.18 124.578 414.18ZM124.578 412.128C125.418 412.128 126.174 411.942 126.846 411.57C127.518 411.186 128.046 410.658 128.43 409.986C128.814 409.302 129.006 408.54 129.006 407.7C129.006 406.86 128.814 406.104 128.43 405.432C128.046 404.748 127.518 404.22 126.846 403.848C126.174 403.464 125.418 403.272 124.578 403.272C123.738 403.272 122.982 403.464 122.31 403.848C121.638 404.22 121.11 404.748 120.726 405.432C120.342 406.104 120.15 406.86 120.15 407.7C120.15 408.54 120.342 409.302 120.726 409.986C121.11 410.658 121.638 411.186 122.31 411.57C122.982 411.942 123.738 412.128 124.578 412.128ZM135.77 405.792C136.418 404.784 137.558 404.28 139.19 404.28V406.422C138.998 406.386 138.824 406.368 138.668 406.368C137.792 406.368 137.108 406.626 136.616 407.142C136.124 407.646 135.878 408.378 135.878 409.338V414H133.628V404.388H135.77V405.792ZM150.425 400.644V414H148.265V412.758C147.893 413.214 147.431 413.556 146.879 413.784C146.339 414.012 145.739 414.126 145.079 414.126C144.155 414.126 143.321 413.922 142.577 413.514C141.845 413.106 141.269 412.53 140.849 411.786C140.429 411.03 140.219 410.166 140.219 409.194C140.219 408.222 140.429 407.364 140.849 406.62C141.269 405.876 141.845 405.3 142.577 404.892C143.321 404.484 144.155 404.28 145.079 404.28C145.715 404.28 146.297 404.388 146.825 404.604C147.353 404.82 147.803 405.144 148.175 405.576V400.644H150.425ZM145.349 412.2C145.889 412.2 146.375 412.08 146.807 411.84C147.239 411.588 147.581 411.234 147.833 410.778C148.085 410.322 148.211 409.794 148.211 409.194C148.211 408.594 148.085 408.066 147.833 407.61C147.581 407.154 147.239 406.806 146.807 406.566C146.375 406.314 145.889 406.188 145.349 406.188C144.809 406.188 144.323 406.314 143.891 406.566C143.459 406.806 143.117 407.154 142.865 407.61C142.613 408.066 142.487 408.594 142.487 409.194C142.487 409.794 142.613 410.322 142.865 410.778C143.117 411.234 143.459 411.588 143.891 411.84C144.323 412.08 144.809 412.2 145.349 412.2ZM162.405 409.248C162.405 409.404 162.393 409.626 162.369 409.914H154.827C154.959 410.622 155.301 411.186 155.853 411.606C156.417 412.014 157.113 412.218 157.941 412.218C158.997 412.218 159.867 411.87 160.551 411.174L161.757 412.56C161.325 413.076 160.779 413.466 160.119 413.73C159.459 413.994 158.715 414.126 157.887 414.126C156.831 414.126 155.901 413.916 155.097 413.496C154.293 413.076 153.669 412.494 153.225 411.75C152.793 410.994 152.577 410.142 152.577 409.194C152.577 408.258 152.787 407.418 153.207 406.674C153.639 405.918 154.233 405.33 154.989 404.91C155.745 404.49 156.597 404.28 157.545 404.28C158.481 404.28 159.315 404.49 160.047 404.91C160.791 405.318 161.367 405.9 161.775 406.656C162.195 407.4 162.405 408.264 162.405 409.248ZM157.545 406.08C156.825 406.08 156.213 406.296 155.709 406.728C155.217 407.148 154.917 407.712 154.809 408.42H160.263C160.167 407.724 159.873 407.16 159.381 406.728C158.889 406.296 158.277 406.08 157.545 406.08ZM166.708 405.792C167.356 404.784 168.496 404.28 170.128 404.28V406.422C169.936 406.386 169.762 406.368 169.606 406.368C168.73 406.368 168.046 406.626 167.554 407.142C167.062 407.646 166.816 408.378 166.816 409.338V414H164.566V404.388H166.708V405.792ZM188.511 401.4V414H186.585L179.637 405.468V414H177.315V401.4H179.241L186.189 409.932V401.4H188.511ZM195.991 414.126C195.019 414.126 194.143 413.916 193.363 413.496C192.583 413.076 191.971 412.494 191.527 411.75C191.095 410.994 190.879 410.142 190.879 409.194C190.879 408.246 191.095 407.4 191.527 406.656C191.971 405.912 192.583 405.33 193.363 404.91C194.143 404.49 195.019 404.28 195.991 404.28C196.975 404.28 197.857 404.49 198.637 404.91C199.417 405.33 200.023 405.912 200.455 406.656C200.899 407.4 201.121 408.246 201.121 409.194C201.121 410.142 200.899 410.994 200.455 411.75C200.023 412.494 199.417 413.076 198.637 413.496C197.857 413.916 196.975 414.126 195.991 414.126ZM195.991 412.2C196.819 412.2 197.503 411.924 198.043 411.372C198.583 410.82 198.853 410.094 198.853 409.194C198.853 408.294 198.583 407.568 198.043 407.016C197.503 406.464 196.819 406.188 195.991 406.188C195.163 406.188 194.479 406.464 193.939 407.016C193.411 407.568 193.147 408.294 193.147 409.194C193.147 410.094 193.411 410.82 193.939 411.372C194.479 411.924 195.163 412.2 195.991 412.2ZM218.003 404.388L214.457 414H212.297L209.813 407.376L207.293 414H205.133L201.605 404.388H203.729L206.267 411.48L208.913 404.388H210.803L213.395 411.516L216.005 404.388H218.003Z" fill="white"/>
<path d="M112.386 261.182C112.386 257.46 110.159 255.205 107.148 255.205C104.125 255.205 101.903 257.46 101.903 261.182C101.903 264.898 104.125 267.159 107.148 267.159C110.159 267.159 112.386 264.903 112.386 261.182ZM110.648 261.182C110.648 264.017 109.148 265.557 107.148 265.557C105.142 265.557 103.648 264.017 103.648 261.182C103.648 258.347 105.142 256.807 107.148 256.807C109.148 256.807 110.648 258.347 110.648 261.182ZM116.338 261.818C116.338 260.426 117.19 259.631 118.372 259.631C119.525 259.631 120.224 260.386 120.224 261.653V267H121.923V261.449C121.923 259.29 120.736 258.159 118.951 258.159C117.639 258.159 116.781 258.767 116.378 259.693H116.27V258.273H114.639V267H116.338V261.818ZM126.1 255.364H124.401V267H126.1V255.364ZM129.66 270.273C131.063 270.273 131.949 269.54 132.455 268.165L136.063 258.29L134.228 258.273L132.018 265.045H131.927L129.716 258.273H127.898L131.091 267.114L130.881 267.693C130.449 268.852 129.841 268.949 128.91 268.693L128.501 270.085C128.705 270.176 129.148 270.273 129.66 270.273ZM142.276 267H149.935V265.494H144.696V265.409L147.009 262.989C149.139 260.835 149.747 259.807 149.747 258.506C149.747 256.636 148.224 255.205 146.031 255.205C143.855 255.205 142.264 256.614 142.264 258.739H143.94C143.935 257.489 144.741 256.67 145.997 256.67C147.179 256.67 148.077 257.398 148.077 258.557C148.077 259.585 147.463 260.324 146.213 261.648L142.276 265.727V267ZM166.989 261.182C166.989 257.46 164.762 255.205 161.751 255.205C158.728 255.205 156.507 257.46 156.507 261.182C156.507 264.898 158.728 267.159 161.751 267.159C164.762 267.159 166.989 264.903 166.989 261.182ZM165.251 261.182C165.251 264.017 163.751 265.557 161.751 265.557C159.745 265.557 158.251 264.017 158.251 261.182C158.251 258.347 159.745 256.807 161.751 256.807C163.751 256.807 165.251 258.347 165.251 261.182ZM169.242 270.273H170.941V265.642H171.043C171.35 266.199 171.975 267.17 173.566 267.17C175.68 267.17 177.214 265.477 177.214 262.653C177.214 259.824 175.657 258.159 173.549 258.159C171.93 258.159 171.344 259.148 171.043 259.688H170.901V258.273H169.242V270.273ZM170.907 262.636C170.907 260.812 171.702 259.602 173.185 259.602C174.725 259.602 175.498 260.903 175.498 262.636C175.498 264.386 174.702 265.722 173.185 265.722C171.725 265.722 170.907 264.472 170.907 262.636ZM183.078 267.176C184.982 267.176 186.328 266.239 186.715 264.818L185.107 264.528C184.8 265.352 184.061 265.773 183.095 265.773C181.641 265.773 180.664 264.83 180.618 263.148H186.823V262.545C186.823 259.392 184.936 258.159 182.959 258.159C180.527 258.159 178.925 260.011 178.925 262.693C178.925 265.403 180.505 267.176 183.078 267.176ZM180.624 261.875C180.692 260.636 181.59 259.562 182.97 259.562C184.289 259.562 185.152 260.54 185.158 261.875H180.624ZM188.908 267H190.607V261.67C190.607 260.528 191.487 259.705 192.692 259.705C193.044 259.705 193.442 259.767 193.578 259.807V258.182C193.408 258.159 193.072 258.142 192.857 258.142C191.834 258.142 190.959 258.722 190.641 259.659H190.55V258.273H188.908V267ZM197.71 267.193C199.153 267.193 199.966 266.46 200.289 265.807H200.358V267H202.017V261.205C202.017 258.665 200.017 258.159 198.63 258.159C197.051 258.159 195.596 258.795 195.028 260.386L196.625 260.75C196.875 260.131 197.511 259.534 198.653 259.534C199.75 259.534 200.312 260.108 200.312 261.097V261.136C200.312 261.756 199.676 261.744 198.108 261.926C196.454 262.119 194.761 262.551 194.761 264.534C194.761 266.25 196.051 267.193 197.71 267.193ZM198.079 265.83C197.119 265.83 196.426 265.398 196.426 264.557C196.426 263.648 197.233 263.324 198.216 263.193C198.767 263.119 200.074 262.972 200.318 262.727V263.852C200.318 264.886 199.494 265.83 198.079 265.83ZM208.553 258.273H206.764V256.182H205.065V258.273H203.786V259.636H205.065V264.79C205.059 266.375 206.269 267.142 207.61 267.114C208.15 267.108 208.514 267.006 208.713 266.932L208.406 265.528C208.292 265.551 208.082 265.602 207.809 265.602C207.258 265.602 206.764 265.42 206.764 264.438V259.636H208.553V258.273ZM214.215 267.176C216.675 267.176 218.283 265.375 218.283 262.676C218.283 259.96 216.675 258.159 214.215 258.159C211.755 258.159 210.147 259.96 210.147 262.676C210.147 265.375 211.755 267.176 214.215 267.176ZM214.221 265.75C212.613 265.75 211.863 264.347 211.863 262.67C211.863 261 212.613 259.58 214.221 259.58C215.817 259.58 216.567 261 216.567 262.67C216.567 264.347 215.817 265.75 214.221 265.75ZM220.38 267H222.078V261.67C222.078 260.528 222.959 259.705 224.164 259.705C224.516 259.705 224.914 259.767 225.05 259.807V258.182C224.88 258.159 224.544 258.142 224.328 258.142C223.306 258.142 222.431 258.722 222.113 259.659H222.022V258.273H220.38V267ZM233.26 260.403C232.908 259.045 231.845 258.159 229.959 258.159C227.987 258.159 226.589 259.199 226.589 260.744C226.589 261.983 227.339 262.807 228.976 263.17L230.453 263.494C231.294 263.682 231.686 264.057 231.686 264.602C231.686 265.278 230.964 265.807 229.851 265.807C228.834 265.807 228.18 265.369 227.976 264.511L226.334 264.761C226.618 266.307 227.902 267.176 229.862 267.176C231.97 267.176 233.43 266.057 233.43 264.477C233.43 263.244 232.646 262.483 231.044 262.114L229.658 261.795C228.697 261.568 228.283 261.244 228.288 260.653C228.283 259.983 229.01 259.506 229.976 259.506C231.033 259.506 231.521 260.091 231.72 260.676L233.26 260.403Z" fill="#22343D"/>
<path d="M126.67 293.364H124.932V301.909H124.824L118.903 293.364H117.278V305H119.034V296.466H119.142L125.057 305H126.67V293.364ZM132.971 305.176C135.432 305.176 137.039 303.375 137.039 300.676C137.039 297.96 135.432 296.159 132.971 296.159C130.511 296.159 128.903 297.96 128.903 300.676C128.903 303.375 130.511 305.176 132.971 305.176ZM132.977 303.75C131.369 303.75 130.619 302.347 130.619 300.67C130.619 299 131.369 297.58 132.977 297.58C134.574 297.58 135.324 299 135.324 300.67C135.324 302.347 134.574 303.75 132.977 303.75ZM143.21 296.273H141.42V294.182H139.721V296.273H138.443V297.636H139.721V302.79C139.715 304.375 140.926 305.142 142.266 305.114C142.806 305.108 143.17 305.006 143.369 304.932L143.062 303.528C142.948 303.551 142.738 303.602 142.465 303.602C141.914 303.602 141.42 303.42 141.42 302.438V297.636H143.21V296.273ZM145.289 305H146.988V296.273H145.289V305ZM146.147 294.926C146.732 294.926 147.221 294.472 147.221 293.915C147.221 293.358 146.732 292.898 146.147 292.898C145.556 292.898 145.073 293.358 145.073 293.915C145.073 294.472 145.556 294.926 146.147 294.926ZM153.627 296.273H151.746V295.489C151.746 294.716 152.064 294.295 152.894 294.295C153.246 294.295 153.496 294.375 153.655 294.426L154.053 293.051C153.814 292.96 153.32 292.818 152.632 292.818C151.252 292.818 150.041 293.625 150.041 295.261V296.273H148.695V297.636H150.041V305H151.746V297.636H153.627V296.273ZM155.58 305H157.278V296.273H155.58V305ZM156.438 294.926C157.023 294.926 157.511 294.472 157.511 293.915C157.511 293.358 157.023 292.898 156.438 292.898C155.847 292.898 155.364 293.358 155.364 293.915C155.364 294.472 155.847 294.926 156.438 294.926ZM163.44 305.176C165.503 305.176 166.838 303.938 167.025 302.239H165.372C165.156 303.182 164.423 303.739 163.451 303.739C162.014 303.739 161.088 302.54 161.088 300.636C161.088 298.767 162.031 297.591 163.451 297.591C164.531 297.591 165.19 298.273 165.372 299.091H167.025C166.843 297.33 165.406 296.159 163.423 296.159C160.963 296.159 159.372 298.011 159.372 300.676C159.372 303.307 160.906 305.176 163.44 305.176ZM171.582 305.193C173.025 305.193 173.838 304.46 174.161 303.807H174.23V305H175.889V299.205C175.889 296.665 173.889 296.159 172.502 296.159C170.923 296.159 169.468 296.795 168.9 298.386L170.497 298.75C170.747 298.131 171.383 297.534 172.525 297.534C173.622 297.534 174.184 298.108 174.184 299.097V299.136C174.184 299.756 173.548 299.744 171.98 299.926C170.326 300.119 168.633 300.551 168.633 302.534C168.633 304.25 169.923 305.193 171.582 305.193ZM171.951 303.83C170.991 303.83 170.298 303.398 170.298 302.557C170.298 301.648 171.105 301.324 172.088 301.193C172.639 301.119 173.945 300.972 174.19 300.727V301.852C174.19 302.886 173.366 303.83 171.951 303.83ZM182.425 296.273H180.636V294.182H178.937V296.273H177.658V297.636H178.937V302.79C178.931 304.375 180.141 305.142 181.482 305.114C182.022 305.108 182.386 305.006 182.584 304.932L182.278 303.528C182.164 303.551 181.954 303.602 181.681 303.602C181.13 303.602 180.636 303.42 180.636 302.438V297.636H182.425V296.273ZM184.505 305H186.203V296.273H184.505V305ZM185.363 294.926C185.948 294.926 186.436 294.472 186.436 293.915C186.436 293.358 185.948 292.898 185.363 292.898C184.772 292.898 184.289 293.358 184.289 293.915C184.289 294.472 184.772 294.926 185.363 294.926ZM192.365 305.176C194.825 305.176 196.433 303.375 196.433 300.676C196.433 297.96 194.825 296.159 192.365 296.159C189.905 296.159 188.297 297.96 188.297 300.676C188.297 303.375 189.905 305.176 192.365 305.176ZM192.371 303.75C190.763 303.75 190.013 302.347 190.013 300.67C190.013 299 190.763 297.58 192.371 297.58C193.967 297.58 194.717 299 194.717 300.67C194.717 302.347 193.967 303.75 192.371 303.75ZM200.228 299.818C200.228 298.426 201.081 297.631 202.262 297.631C203.416 297.631 204.115 298.386 204.115 299.653V305H205.814V299.449C205.814 297.29 204.626 296.159 202.842 296.159C201.53 296.159 200.672 296.767 200.268 297.693H200.16V296.273H198.53V305H200.228V299.818ZM214.832 298.403C214.48 297.045 213.417 296.159 211.531 296.159C209.559 296.159 208.161 297.199 208.161 298.744C208.161 299.983 208.911 300.807 210.548 301.17L212.025 301.494C212.866 301.682 213.258 302.057 213.258 302.602C213.258 303.278 212.536 303.807 211.423 303.807C210.406 303.807 209.752 303.369 209.548 302.511L207.906 302.761C208.19 304.307 209.474 305.176 211.434 305.176C213.542 305.176 215.002 304.057 215.002 302.477C215.002 301.244 214.218 300.483 212.616 300.114L211.23 299.795C210.269 299.568 209.855 299.244 209.86 298.653C209.855 297.983 210.582 297.506 211.548 297.506C212.605 297.506 213.093 298.091 213.292 298.676L214.832 298.403Z" fill="#22343D"/>
<path d="M110.278 343H117.307V341.489H112.034V331.364H110.278V343ZM121.913 343.193C123.356 343.193 124.169 342.46 124.493 341.807H124.561V343H126.22V337.205C126.22 334.665 124.22 334.159 122.834 334.159C121.254 334.159 119.799 334.795 119.231 336.386L120.828 336.75C121.078 336.131 121.714 335.534 122.856 335.534C123.953 335.534 124.515 336.108 124.515 337.097V337.136C124.515 337.756 123.879 337.744 122.311 337.926C120.657 338.119 118.964 338.551 118.964 340.534C118.964 342.25 120.254 343.193 121.913 343.193ZM122.282 341.83C121.322 341.83 120.629 341.398 120.629 340.557C120.629 339.648 121.436 339.324 122.419 339.193C122.97 339.119 124.277 338.972 124.521 338.727V339.852C124.521 340.886 123.697 341.83 122.282 341.83ZM130.382 337.818C130.382 336.426 131.234 335.631 132.416 335.631C133.569 335.631 134.268 336.386 134.268 337.653V343H135.967V337.449C135.967 335.29 134.779 334.159 132.995 334.159C131.683 334.159 130.825 334.767 130.421 335.693H130.313V334.273H128.683V343H130.382V337.818ZM141.712 343.17C143.303 343.17 143.928 342.199 144.235 341.642H144.377V343H146.036V331.364H144.337V335.688H144.235C143.928 335.148 143.349 334.159 141.724 334.159C139.616 334.159 138.064 335.824 138.064 338.653C138.064 341.477 139.593 343.17 141.712 343.17ZM142.087 341.722C140.57 341.722 139.78 340.386 139.78 338.636C139.78 336.903 140.553 335.602 142.087 335.602C143.57 335.602 144.366 336.812 144.366 338.636C144.366 340.472 143.553 341.722 142.087 341.722ZM148.661 343H150.36V334.273H148.661V343ZM149.519 332.926C150.104 332.926 150.593 332.472 150.593 331.915C150.593 331.358 150.104 330.898 149.519 330.898C148.928 330.898 148.445 331.358 148.445 331.915C148.445 332.472 148.928 332.926 149.519 332.926ZM154.544 337.818C154.544 336.426 155.396 335.631 156.578 335.631C157.732 335.631 158.43 336.386 158.43 337.653V343H160.129V337.449C160.129 335.29 158.942 334.159 157.158 334.159C155.845 334.159 154.987 334.767 154.584 335.693H154.476V334.273H152.845V343H154.544V337.818ZM166.267 346.455C168.488 346.455 170.204 345.438 170.204 343.193V334.273H168.539V335.688H168.414C168.113 335.148 167.511 334.159 165.886 334.159C163.778 334.159 162.227 335.824 162.227 338.602C162.227 341.386 163.812 342.869 165.875 342.869C167.477 342.869 168.096 341.966 168.403 341.409H168.511V343.125C168.511 344.494 167.574 345.085 166.284 345.085C164.869 345.085 164.318 344.375 164.017 343.875L162.557 344.477C163.017 345.545 164.182 346.455 166.267 346.455ZM166.25 341.46C164.733 341.46 163.943 340.295 163.943 338.58C163.943 336.903 164.716 335.602 166.25 335.602C167.733 335.602 168.528 336.812 168.528 338.58C168.528 340.381 167.716 341.46 166.25 341.46ZM177.253 343H179.009V338.909H181.395C184.094 338.909 185.43 337.278 185.43 335.131C185.43 332.989 184.106 331.364 181.401 331.364H177.253V343ZM179.009 337.42V332.869H181.214C182.952 332.869 183.662 333.812 183.662 335.131C183.662 336.449 182.952 337.42 181.236 337.42H179.009ZM190.013 343.193C191.456 343.193 192.269 342.46 192.593 341.807H192.661V343H194.32V337.205C194.32 334.665 192.32 334.159 190.934 334.159C189.354 334.159 187.899 334.795 187.331 336.386L188.928 336.75C189.178 336.131 189.814 335.534 190.956 335.534C192.053 335.534 192.615 336.108 192.615 337.097V337.136C192.615 337.756 191.979 337.744 190.411 337.926C188.757 338.119 187.064 338.551 187.064 340.534C187.064 342.25 188.354 343.193 190.013 343.193ZM190.382 341.83C189.422 341.83 188.729 341.398 188.729 340.557C188.729 339.648 189.536 339.324 190.519 339.193C191.07 339.119 192.377 338.972 192.621 338.727V339.852C192.621 340.886 191.797 341.83 190.382 341.83ZM200.442 346.455C202.663 346.455 204.379 345.438 204.379 343.193V334.273H202.714V335.688H202.589C202.288 335.148 201.686 334.159 200.061 334.159C197.953 334.159 196.402 335.824 196.402 338.602C196.402 341.386 197.987 342.869 200.05 342.869C201.652 342.869 202.271 341.966 202.578 341.409H202.686V343.125C202.686 344.494 201.749 345.085 200.459 345.085C199.044 345.085 198.493 344.375 198.192 343.875L196.732 344.477C197.192 345.545 198.357 346.455 200.442 346.455ZM200.425 341.46C198.908 341.46 198.118 340.295 198.118 338.58C198.118 336.903 198.891 335.602 200.425 335.602C201.908 335.602 202.703 336.812 202.703 338.58C202.703 340.381 201.891 341.46 200.425 341.46ZM210.619 343.176C212.522 343.176 213.869 342.239 214.255 340.818L212.647 340.528C212.341 341.352 211.602 341.773 210.636 341.773C209.182 341.773 208.204 340.83 208.159 339.148H214.363V338.545C214.363 335.392 212.477 334.159 210.5 334.159C208.068 334.159 206.466 336.011 206.466 338.693C206.466 341.403 208.045 343.176 210.619 343.176ZM208.164 337.875C208.233 336.636 209.13 335.562 210.511 335.562C211.829 335.562 212.693 336.54 212.699 337.875H208.164ZM222.988 336.403C222.636 335.045 221.573 334.159 219.687 334.159C217.715 334.159 216.318 335.199 216.318 336.744C216.318 337.983 217.068 338.807 218.704 339.17L220.181 339.494C221.022 339.682 221.414 340.057 221.414 340.602C221.414 341.278 220.693 341.807 219.579 341.807C218.562 341.807 217.909 341.369 217.704 340.511L216.062 340.761C216.346 342.307 217.63 343.176 219.59 343.176C221.698 343.176 223.159 342.057 223.159 340.477C223.159 339.244 222.374 338.483 220.772 338.114L219.386 337.795C218.426 337.568 218.011 337.244 218.016 336.653C218.011 335.983 218.738 335.506 219.704 335.506C220.761 335.506 221.249 336.091 221.448 336.676L222.988 336.403Z" fill="#22343D"/>
</g>
<defs>
<filter id="filter0_d_16_2" x="0" y="0" width="338.649" height="472" filterUnits="userSpaceOnUse" color-interpolation-filters="sRGB">
<feFlood flood-opacity="0" result="BackgroundImageFix"/>
<feColorMatrix in="SourceAlpha" type="matrix" values="0 0 0 0 0 0 0 0 0 0 0 0 0 0 0 0 0 0 127 0" result="hardAlpha"/>
<feOffset dy="2"/>
<feGaussianBlur stdDeviation="4"/>
<feColorMatrix type="matrix" values="0 0 0 0 0 0 0 0 0 0 0 0 0 0 0 0 0 0 0.25 0"/>
<feBlend mode="normal" in2="BackgroundImageFix" result="effect1_dropShadow_16_2"/>
<feBlend mode="normal" in="SourceGraphic" in2="effect1_dropShadow_16_2" result="shape"/>
</filter>
<clipPath id="clip0_16_2">
<rect width="16" height="29" fill="white" transform="translate(149 158)"/>
</clipPath>
</defs>
</svg>
