<svg width="150" height="50" viewBox="0 0 150 50" fill="none" xmlns="http://www.w3.org/2000/svg">
<rect width="150" height="50" rx="8" fill="white"/>
<path d="M44.1 25.24C43.78 24.6533 43.34 24.2067 42.78 23.9C42.22 23.5933 41.5667 23.44 40.82 23.44C39.9933 23.44 39.26 23.6267 38.62 24C37.98 24.3733 37.48 24.9067 37.12 25.6C36.76 26.2933 36.58 27.0933 36.58 28C36.58 28.9333 36.76 29.7467 37.12 30.44C37.4933 31.1333 38.0067 31.6667 38.66 32.04C39.3133 32.4133 40.0733 32.6 40.94 32.6C42.0067 32.6 42.88 32.32 43.56 31.76C44.24 31.1867 44.6867 30.3933 44.9 29.38H40.1V27.24H47.66V29.68C47.4733 30.6533 47.0733 31.5533 46.46 32.38C45.8467 33.2067 45.0533 33.8733 44.08 34.38C43.12 34.8733 42.04 35.12 40.84 35.12C39.4933 35.12 38.2733 34.82 37.18 34.22C36.1 33.6067 35.2467 32.76 34.62 31.68C34.0067 30.6 33.7 29.3733 33.7 28C33.7 26.6267 34.0067 25.4 34.62 24.32C35.2467 23.2267 36.1 22.38 37.18 21.78C38.2733 21.1667 39.4867 20.86 40.82 20.86C42.3933 20.86 43.76 21.2467 44.92 22.02C46.08 22.78 46.88 23.8533 47.32 25.24H44.1ZM60.0316 29.22C60.0316 29.62 60.0049 29.98 59.9516 30.3H51.8516C51.9182 31.1 52.1982 31.7267 52.6916 32.18C53.1849 32.6333 53.7916 32.86 54.5116 32.86C55.5516 32.86 56.2916 32.4133 56.7316 31.52H59.7516C59.4316 32.5867 58.8182 33.4667 57.9116 34.16C57.0049 34.84 55.8916 35.18 54.5716 35.18C53.5049 35.18 52.5449 34.9467 51.6916 34.48C50.8516 34 50.1916 33.3267 49.7116 32.46C49.2449 31.5933 49.0116 30.5933 49.0116 29.46C49.0116 28.3133 49.2449 27.3067 49.7116 26.44C50.1782 25.5733 50.8316 24.9067 51.6716 24.44C52.5116 23.9733 53.4782 23.74 54.5716 23.74C55.6249 23.74 56.5649 23.9667 57.3916 24.42C58.2316 24.8733 58.8782 25.52 59.3316 26.36C59.7982 27.1867 60.0316 28.14 60.0316 29.22ZM57.1316 28.42C57.1182 27.7 56.8582 27.1267 56.3516 26.7C55.8449 26.26 55.2249 26.04 54.4916 26.04C53.7982 26.04 53.2116 26.2533 52.7316 26.68C52.2649 27.0933 51.9782 27.6733 51.8716 28.42H57.1316ZM65.3353 26.22V31.58C65.3353 31.9533 65.422 32.2267 65.5953 32.4C65.782 32.56 66.0886 32.64 66.5153 32.64H67.8153V35H66.0553C63.6953 35 62.5153 33.8533 62.5153 31.56V26.22H61.1953V23.92H62.5153V21.18H65.3353V23.92H67.8153V26.22H65.3353ZM84.0948 21.04V23.3H80.3748V35H77.5748V23.3H73.8548V21.04H84.0948ZM92.3778 23.76C93.2178 23.76 93.9645 23.9467 94.6178 24.32C95.2711 24.68 95.7778 25.22 96.1378 25.94C96.5111 26.6467 96.6978 27.5 96.6978 28.5V35H93.8978V28.88C93.8978 28 93.6778 27.3267 93.2378 26.86C92.7978 26.38 92.1978 26.14 91.4378 26.14C90.6645 26.14 90.0511 26.38 89.5978 26.86C89.1578 27.3267 88.9378 28 88.9378 28.88V35H86.1378V20.2H88.9378V25.3C89.2978 24.82 89.7778 24.4467 90.3778 24.18C90.9778 23.9 91.6445 23.76 92.3778 23.76ZM100.78 22.6C100.287 22.6 99.8738 22.4467 99.5405 22.14C99.2205 21.82 99.0605 21.4267 99.0605 20.96C99.0605 20.4933 99.2205 20.1067 99.5405 19.8C99.8738 19.48 100.287 19.32 100.78 19.32C101.274 19.32 101.68 19.48 102 19.8C102.334 20.1067 102.5 20.4933 102.5 20.96C102.5 21.4267 102.334 21.82 102 22.14C101.68 22.4467 101.274 22.6 100.78 22.6ZM102.16 23.92V35H99.3605V23.92H102.16ZM109.167 35.18C108.26 35.18 107.447 35.02 106.727 34.7C106.007 34.3667 105.434 33.92 105.007 33.36C104.594 32.8 104.367 32.18 104.327 31.5H107.147C107.2 31.9267 107.407 32.28 107.767 32.56C108.14 32.84 108.6 32.98 109.147 32.98C109.68 32.98 110.094 32.8733 110.387 32.66C110.694 32.4467 110.847 32.1733 110.847 31.84C110.847 31.48 110.66 31.2133 110.287 31.04C109.927 30.8533 109.347 30.6533 108.547 30.44C107.72 30.24 107.04 30.0333 106.507 29.82C105.987 29.6067 105.534 29.28 105.147 28.84C104.774 28.4 104.587 27.8067 104.587 27.06C104.587 26.4467 104.76 25.8867 105.107 25.38C105.467 24.8733 105.974 24.4733 106.627 24.18C107.294 23.8867 108.074 23.74 108.967 23.74C110.287 23.74 111.34 24.0733 112.127 24.74C112.914 25.3933 113.347 26.28 113.427 27.4H110.747C110.707 26.96 110.52 26.6133 110.187 26.36C109.867 26.0933 109.434 25.96 108.887 25.96C108.38 25.96 107.987 26.0533 107.707 26.24C107.44 26.4267 107.307 26.6867 107.307 27.02C107.307 27.3933 107.494 27.68 107.867 27.88C108.24 28.0667 108.82 28.26 109.607 28.46C110.407 28.66 111.067 28.8667 111.587 29.08C112.107 29.2933 112.554 29.6267 112.927 30.08C113.314 30.52 113.514 31.1067 113.527 31.84C113.527 32.48 113.347 33.0533 112.987 33.56C112.64 34.0667 112.134 34.4667 111.467 34.76C110.814 35.04 110.047 35.18 109.167 35.18Z" fill="#02897A"/>
</svg>
