<svg width="339" height="472" viewBox="0 0 339 472" fill="none" xmlns="http://www.w3.org/2000/svg">
<g filter="url(#filter0_d_16_83)">
<rect x="8" y="6" width="322.649" height="456" rx="8" fill="#02897A"/>
<path d="M117.584 58.168C116.352 58.168 115.248 57.968 114.272 57.568C113.296 57.168 112.512 56.576 111.92 55.792C111.344 55.008 111.04 54.064 111.008 52.96H115.376C115.44 53.584 115.656 54.064 116.024 54.4C116.392 54.72 116.872 54.88 117.464 54.88C118.072 54.88 118.552 54.744 118.904 54.472C119.256 54.184 119.432 53.792 119.432 53.296C119.432 52.88 119.288 52.536 119 52.264C118.728 51.992 118.384 51.768 117.968 51.592C117.568 51.416 116.992 51.216 116.24 50.992C115.152 50.656 114.264 50.32 113.576 49.984C112.888 49.648 112.296 49.152 111.8 48.496C111.304 47.84 111.056 46.984 111.056 45.928C111.056 44.36 111.624 43.136 112.76 42.256C113.896 41.36 115.376 40.912 117.2 40.912C119.056 40.912 120.552 41.36 121.688 42.256C122.824 43.136 123.432 44.368 123.512 45.952H119.072C119.04 45.408 118.84 44.984 118.472 44.68C118.104 44.36 117.632 44.2 117.056 44.2C116.56 44.2 116.16 44.336 115.856 44.608C115.552 44.864 115.4 45.24 115.4 45.736C115.4 46.28 115.656 46.704 116.168 47.008C116.68 47.312 117.48 47.64 118.568 47.992C119.656 48.36 120.536 48.712 121.208 49.048C121.896 49.384 122.488 49.872 122.984 50.512C123.48 51.152 123.728 51.976 123.728 52.984C123.728 53.944 123.48 54.816 122.984 55.6C122.504 56.384 121.8 57.008 120.872 57.472C119.944 57.936 118.848 58.168 117.584 58.168ZM133.718 54.52V58H131.63C130.142 58 128.982 57.64 128.15 56.92C127.318 56.184 126.902 54.992 126.902 53.344V48.016H125.27V44.608H126.902V41.344H131.006V44.608H133.694V48.016H131.006V53.392C131.006 53.792 131.102 54.08 131.294 54.256C131.486 54.432 131.806 54.52 132.254 54.52H133.718ZM135.188 51.28C135.188 49.904 135.444 48.696 135.956 47.656C136.484 46.616 137.196 45.816 138.092 45.256C138.988 44.696 139.988 44.416 141.092 44.416C142.036 44.416 142.86 44.608 143.564 44.992C144.284 45.376 144.836 45.88 145.22 46.504V44.608H149.324V58H145.22V56.104C144.82 56.728 144.26 57.232 143.54 57.616C142.836 58 142.012 58.192 141.068 58.192C139.98 58.192 138.988 57.912 138.092 57.352C137.196 56.776 136.484 55.968 135.956 54.928C135.444 53.872 135.188 52.656 135.188 51.28ZM145.22 51.304C145.22 50.28 144.932 49.472 144.356 48.88C143.796 48.288 143.108 47.992 142.292 47.992C141.476 47.992 140.78 48.288 140.204 48.88C139.644 49.456 139.364 50.256 139.364 51.28C139.364 52.304 139.644 53.12 140.204 53.728C140.78 54.32 141.476 54.616 142.292 54.616C143.108 54.616 143.796 54.32 144.356 53.728C144.932 53.136 145.22 52.328 145.22 51.304ZM160.453 44.464C162.021 44.464 163.269 44.976 164.197 46C165.141 47.008 165.613 48.4 165.613 50.176V58H161.533V50.728C161.533 49.832 161.301 49.136 160.837 48.64C160.373 48.144 159.749 47.896 158.965 47.896C158.181 47.896 157.557 48.144 157.093 48.64C156.629 49.136 156.397 49.832 156.397 50.728V58H152.293V44.608H156.397V46.384C156.813 45.792 157.373 45.328 158.077 44.992C158.781 44.64 159.573 44.464 160.453 44.464ZM167.649 51.28C167.649 49.904 167.905 48.696 168.417 47.656C168.945 46.616 169.657 45.816 170.553 45.256C171.449 44.696 172.449 44.416 173.553 44.416C174.433 44.416 175.233 44.6 175.953 44.968C176.689 45.336 177.265 45.832 177.681 46.456V40.24H181.785V58H177.681V56.08C177.297 56.72 176.745 57.232 176.025 57.616C175.321 58 174.497 58.192 173.553 58.192C172.449 58.192 171.449 57.912 170.553 57.352C169.657 56.776 168.945 55.968 168.417 54.928C167.905 53.872 167.649 52.656 167.649 51.28ZM177.681 51.304C177.681 50.28 177.393 49.472 176.817 48.88C176.257 48.288 175.569 47.992 174.753 47.992C173.937 47.992 173.241 48.288 172.665 48.88C172.105 49.456 171.825 50.256 171.825 51.28C171.825 52.304 172.105 53.12 172.665 53.728C173.241 54.32 173.937 54.616 174.753 54.616C175.569 54.616 176.257 54.32 176.817 53.728C177.393 53.136 177.681 52.328 177.681 51.304ZM183.938 51.28C183.938 49.904 184.194 48.696 184.706 47.656C185.234 46.616 185.946 45.816 186.842 45.256C187.738 44.696 188.738 44.416 189.842 44.416C190.786 44.416 191.61 44.608 192.314 44.992C193.034 45.376 193.586 45.88 193.97 46.504V44.608H198.074V58H193.97V56.104C193.57 56.728 193.01 57.232 192.29 57.616C191.586 58 190.762 58.192 189.818 58.192C188.73 58.192 187.738 57.912 186.842 57.352C185.946 56.776 185.234 55.968 184.706 54.928C184.194 53.872 183.938 52.656 183.938 51.28ZM193.97 51.304C193.97 50.28 193.682 49.472 193.106 48.88C192.546 48.288 191.858 47.992 191.042 47.992C190.226 47.992 189.53 48.288 188.954 48.88C188.394 49.456 188.114 50.256 188.114 51.28C188.114 52.304 188.394 53.12 188.954 53.728C189.53 54.32 190.226 54.616 191.042 54.616C191.858 54.616 192.546 54.32 193.106 53.728C193.682 53.136 193.97 52.328 193.97 51.304ZM205.147 46.84C205.627 46.104 206.227 45.528 206.947 45.112C207.667 44.68 208.467 44.464 209.347 44.464V48.808H208.219C207.195 48.808 206.427 49.032 205.915 49.48C205.403 49.912 205.147 50.68 205.147 51.784V58H201.043V44.608H205.147V46.84ZM210.492 51.28C210.492 49.904 210.748 48.696 211.26 47.656C211.788 46.616 212.5 45.816 213.396 45.256C214.292 44.696 215.292 44.416 216.396 44.416C217.276 44.416 218.076 44.6 218.796 44.968C219.532 45.336 220.108 45.832 220.524 46.456V40.24H224.628V58H220.524V56.08C220.14 56.72 219.588 57.232 218.868 57.616C218.164 58 217.34 58.192 216.396 58.192C215.292 58.192 214.292 57.912 213.396 57.352C212.5 56.776 211.788 55.968 211.26 54.928C210.748 53.872 210.492 52.656 210.492 51.28ZM220.524 51.304C220.524 50.28 220.236 49.472 219.66 48.88C219.1 48.288 218.412 47.992 217.596 47.992C216.78 47.992 216.084 48.288 215.508 48.88C214.948 49.456 214.668 50.256 214.668 51.28C214.668 52.304 214.948 53.12 215.508 53.728C216.084 54.32 216.78 54.616 217.596 54.616C218.412 54.616 219.1 54.32 219.66 53.728C220.236 53.136 220.524 52.328 220.524 51.304Z" fill="white"/>
<path d="M87.816 98.256C88.2213 98.32 88.5893 98.4853 88.92 98.752C89.2613 99.0187 89.528 99.3493 89.72 99.744C89.9227 100.139 90.024 100.56 90.024 101.008C90.024 101.573 89.88 102.085 89.592 102.544C89.304 102.992 88.8827 103.349 88.328 103.616C87.784 103.872 87.1387 104 86.392 104H82.232V92.848H86.232C86.9893 92.848 87.6347 92.976 88.168 93.232C88.7013 93.4773 89.1013 93.8133 89.368 94.24C89.6347 94.6667 89.768 95.1467 89.768 95.68C89.768 96.3413 89.5867 96.8907 89.224 97.328C88.872 97.7547 88.4027 98.064 87.816 98.256ZM83.688 97.664H86.136C86.8187 97.664 87.3467 97.504 87.72 97.184C88.0933 96.864 88.28 96.4213 88.28 95.856C88.28 95.2907 88.0933 94.848 87.72 94.528C87.3467 94.208 86.808 94.048 86.104 94.048H83.688V97.664ZM86.264 102.8C86.9893 102.8 87.5547 102.629 87.96 102.288C88.3653 101.947 88.568 101.472 88.568 100.864C88.568 100.245 88.3547 99.76 87.928 99.408C87.5013 99.0453 86.9307 98.864 86.216 98.864H83.688V102.8H86.264ZM93.5005 96.656C93.7565 96.1547 94.1192 95.7653 94.5885 95.488C95.0685 95.2107 95.6498 95.072 96.3325 95.072V96.576H95.9485C94.3165 96.576 93.5005 97.4613 93.5005 99.232V104H92.0445V95.232H93.5005V96.656ZM98.7653 93.808C98.4879 93.808 98.2533 93.712 98.0613 93.52C97.8693 93.328 97.7733 93.0933 97.7733 92.816C97.7733 92.5387 97.8693 92.304 98.0613 92.112C98.2533 91.92 98.4879 91.824 98.7653 91.824C99.0319 91.824 99.2559 91.92 99.4373 92.112C99.6293 92.304 99.7253 92.5387 99.7253 92.816C99.7253 93.0933 99.6293 93.328 99.4373 93.52C99.2559 93.712 99.0319 93.808 98.7653 93.808ZM99.4693 95.232V104H98.0133V95.232H99.4693ZM109.951 99.28C109.951 99.5573 109.935 99.8507 109.903 100.16H102.895C102.948 101.024 103.241 101.701 103.775 102.192C104.319 102.672 104.975 102.912 105.743 102.912C106.372 102.912 106.895 102.768 107.311 102.48C107.737 102.181 108.036 101.787 108.207 101.296H109.775C109.54 102.139 109.071 102.827 108.367 103.36C107.663 103.883 106.788 104.144 105.743 104.144C104.911 104.144 104.164 103.957 103.503 103.584C102.852 103.211 102.34 102.683 101.967 102C101.593 101.307 101.407 100.507 101.407 99.6C101.407 98.6933 101.588 97.8987 101.951 97.216C102.313 96.5333 102.82 96.0107 103.471 95.648C104.132 95.2747 104.889 95.088 105.743 95.088C106.575 95.088 107.311 95.2693 107.951 95.632C108.591 95.9947 109.081 96.496 109.423 97.136C109.775 97.7653 109.951 98.48 109.951 99.28ZM108.447 98.976C108.447 98.4213 108.324 97.9467 108.079 97.552C107.833 97.1467 107.497 96.8427 107.071 96.64C106.655 96.4267 106.191 96.32 105.679 96.32C104.943 96.32 104.313 96.5547 103.791 97.024C103.279 97.4933 102.985 98.144 102.911 98.976H108.447ZM115.441 96.432H113.601V104H112.145V96.432H111.009V95.232H112.145V94.608C112.145 93.6267 112.395 92.912 112.897 92.464C113.409 92.0053 114.225 91.776 115.345 91.776V92.992C114.705 92.992 114.251 93.12 113.985 93.376C113.729 93.6213 113.601 94.032 113.601 94.608V95.232H115.441V96.432ZM122.86 96.848C123.148 96.3467 123.575 95.9307 124.14 95.6C124.716 95.2587 125.383 95.088 126.14 95.088C126.919 95.088 127.623 95.2747 128.252 95.648C128.892 96.0213 129.393 96.5493 129.756 97.232C130.119 97.904 130.3 98.688 130.3 99.584C130.3 100.469 130.119 101.259 129.756 101.952C129.393 102.645 128.892 103.184 128.252 103.568C127.623 103.952 126.919 104.144 126.14 104.144C125.393 104.144 124.732 103.979 124.156 103.648C123.591 103.307 123.159 102.885 122.86 102.384V108.16H121.404V95.232H122.86V96.848ZM128.812 99.584C128.812 98.9227 128.679 98.3467 128.412 97.856C128.145 97.3653 127.783 96.992 127.324 96.736C126.876 96.48 126.38 96.352 125.836 96.352C125.303 96.352 124.807 96.4853 124.348 96.752C123.9 97.008 123.537 97.3867 123.26 97.888C122.993 98.3787 122.86 98.9493 122.86 99.6C122.86 100.261 122.993 100.843 123.26 101.344C123.537 101.835 123.9 102.213 124.348 102.48C124.807 102.736 125.303 102.864 125.836 102.864C126.38 102.864 126.876 102.736 127.324 102.48C127.783 102.213 128.145 101.835 128.412 101.344C128.679 100.843 128.812 100.256 128.812 99.584ZM133.672 96.656C133.928 96.1547 134.291 95.7653 134.76 95.488C135.24 95.2107 135.822 95.072 136.504 95.072V96.576H136.12C134.488 96.576 133.672 97.4613 133.672 99.232V104H132.216V95.232H133.672V96.656ZM138.937 93.808C138.66 93.808 138.425 93.712 138.233 93.52C138.041 93.328 137.945 93.0933 137.945 92.816C137.945 92.5387 138.041 92.304 138.233 92.112C138.425 91.92 138.66 91.824 138.937 91.824C139.204 91.824 139.428 91.92 139.609 92.112C139.801 92.304 139.897 92.5387 139.897 92.816C139.897 93.0933 139.801 93.328 139.609 93.52C139.428 93.712 139.204 93.808 138.937 93.808ZM139.641 95.232V104H138.185V95.232H139.641ZM141.579 99.6C141.579 98.6933 141.76 97.904 142.123 97.232C142.485 96.5493 142.987 96.0213 143.627 95.648C144.277 95.2747 145.019 95.088 145.851 95.088C146.928 95.088 147.813 95.3493 148.507 95.872C149.211 96.3947 149.675 97.12 149.899 98.048H148.331C148.181 97.5147 147.888 97.0933 147.451 96.784C147.024 96.4747 146.491 96.32 145.851 96.32C145.019 96.32 144.347 96.608 143.835 97.184C143.323 97.7493 143.067 98.5547 143.067 99.6C143.067 100.656 143.323 101.472 143.835 102.048C144.347 102.624 145.019 102.912 145.851 102.912C146.491 102.912 147.024 102.763 147.451 102.464C147.877 102.165 148.171 101.739 148.331 101.184H149.899C149.664 102.08 149.195 102.8 148.491 103.344C147.787 103.877 146.907 104.144 145.851 104.144C145.019 104.144 144.277 103.957 143.627 103.584C142.987 103.211 142.485 102.683 142.123 102C141.76 101.317 141.579 100.517 141.579 99.6ZM159.841 99.28C159.841 99.5573 159.825 99.8507 159.793 100.16H152.785C152.839 101.024 153.132 101.701 153.665 102.192C154.209 102.672 154.865 102.912 155.633 102.912C156.263 102.912 156.785 102.768 157.201 102.48C157.628 102.181 157.927 101.787 158.097 101.296H159.665C159.431 102.139 158.961 102.827 158.257 103.36C157.553 103.883 156.679 104.144 155.633 104.144C154.801 104.144 154.055 103.957 153.393 103.584C152.743 103.211 152.231 102.683 151.857 102C151.484 101.307 151.297 100.507 151.297 99.6C151.297 98.6933 151.479 97.8987 151.841 97.216C152.204 96.5333 152.711 96.0107 153.361 95.648C154.023 95.2747 154.78 95.088 155.633 95.088C156.465 95.088 157.201 95.2693 157.841 95.632C158.481 95.9947 158.972 96.496 159.313 97.136C159.665 97.7653 159.841 98.48 159.841 99.28ZM158.337 98.976C158.337 98.4213 158.215 97.9467 157.969 97.552C157.724 97.1467 157.388 96.8427 156.961 96.64C156.545 96.4267 156.081 96.32 155.569 96.32C154.833 96.32 154.204 96.5547 153.681 97.024C153.169 97.4933 152.876 98.144 152.801 98.976H158.337ZM165.485 99.584C165.485 98.688 165.666 97.904 166.029 97.232C166.392 96.5493 166.888 96.0213 167.517 95.648C168.157 95.2747 168.872 95.088 169.661 95.088C170.344 95.088 170.978 95.248 171.565 95.568C172.152 95.8773 172.6 96.288 172.909 96.8V92.16H174.381V104H172.909V102.352C172.621 102.875 172.194 103.307 171.629 103.648C171.064 103.979 170.402 104.144 169.645 104.144C168.866 104.144 168.157 103.952 167.517 103.568C166.888 103.184 166.392 102.645 166.029 101.952C165.666 101.259 165.485 100.469 165.485 99.584ZM172.909 99.6C172.909 98.9387 172.776 98.3627 172.509 97.872C172.242 97.3813 171.88 97.008 171.421 96.752C170.973 96.4853 170.477 96.352 169.933 96.352C169.389 96.352 168.893 96.48 168.445 96.736C167.997 96.992 167.64 97.3653 167.373 97.856C167.106 98.3467 166.973 98.9227 166.973 99.584C166.973 100.256 167.106 100.843 167.373 101.344C167.64 101.835 167.997 102.213 168.445 102.48C168.893 102.736 169.389 102.864 169.933 102.864C170.477 102.864 170.973 102.736 171.421 102.48C171.88 102.213 172.242 101.835 172.509 101.344C172.776 100.843 172.909 100.261 172.909 99.6ZM184.841 99.28C184.841 99.5573 184.825 99.8507 184.793 100.16H177.785C177.839 101.024 178.132 101.701 178.665 102.192C179.209 102.672 179.865 102.912 180.633 102.912C181.263 102.912 181.785 102.768 182.201 102.48C182.628 102.181 182.927 101.787 183.097 101.296H184.665C184.431 102.139 183.961 102.827 183.257 103.36C182.553 103.883 181.679 104.144 180.633 104.144C179.801 104.144 179.055 103.957 178.393 103.584C177.743 103.211 177.231 102.683 176.857 102C176.484 101.307 176.297 100.507 176.297 99.6C176.297 98.6933 176.479 97.8987 176.841 97.216C177.204 96.5333 177.711 96.0107 178.361 95.648C179.023 95.2747 179.78 95.088 180.633 95.088C181.465 95.088 182.201 95.2693 182.841 95.632C183.481 95.9947 183.972 96.496 184.313 97.136C184.665 97.7653 184.841 98.48 184.841 99.28ZM183.337 98.976C183.337 98.4213 183.215 97.9467 182.969 97.552C182.724 97.1467 182.388 96.8427 181.961 96.64C181.545 96.4267 181.081 96.32 180.569 96.32C179.833 96.32 179.204 96.5547 178.681 97.024C178.169 97.4933 177.876 98.144 177.801 98.976H183.337ZM189.867 104.144C189.195 104.144 188.593 104.032 188.059 103.808C187.526 103.573 187.105 103.253 186.795 102.848C186.486 102.432 186.315 101.957 186.283 101.424H187.787C187.83 101.861 188.033 102.219 188.395 102.496C188.769 102.773 189.254 102.912 189.851 102.912C190.406 102.912 190.843 102.789 191.163 102.544C191.483 102.299 191.643 101.989 191.643 101.616C191.643 101.232 191.473 100.949 191.131 100.768C190.79 100.576 190.262 100.389 189.547 100.208C188.897 100.037 188.363 99.8667 187.947 99.696C187.542 99.5147 187.19 99.2533 186.891 98.912C186.603 98.56 186.459 98.1013 186.459 97.536C186.459 97.088 186.593 96.6773 186.859 96.304C187.126 95.9307 187.505 95.6373 187.995 95.424C188.486 95.2 189.046 95.088 189.675 95.088C190.646 95.088 191.43 95.3333 192.027 95.824C192.625 96.3147 192.945 96.9867 192.987 97.84H191.531C191.499 97.3813 191.313 97.0133 190.971 96.736C190.641 96.4587 190.193 96.32 189.627 96.32C189.105 96.32 188.689 96.432 188.379 96.656C188.07 96.88 187.915 97.1733 187.915 97.536C187.915 97.824 188.006 98.064 188.187 98.256C188.379 98.4373 188.614 98.5867 188.891 98.704C189.179 98.8107 189.574 98.9333 190.075 99.072C190.705 99.2427 191.217 99.4133 191.611 99.584C192.006 99.744 192.342 99.9893 192.619 100.32C192.907 100.651 193.057 101.083 193.067 101.616C193.067 102.096 192.934 102.528 192.667 102.912C192.401 103.296 192.022 103.6 191.531 103.824C191.051 104.037 190.497 104.144 189.867 104.144ZM194.579 99.6C194.579 98.6933 194.76 97.904 195.123 97.232C195.485 96.5493 195.987 96.0213 196.627 95.648C197.277 95.2747 198.019 95.088 198.851 95.088C199.928 95.088 200.813 95.3493 201.507 95.872C202.211 96.3947 202.675 97.12 202.899 98.048H201.331C201.181 97.5147 200.888 97.0933 200.451 96.784C200.024 96.4747 199.491 96.32 198.851 96.32C198.019 96.32 197.347 96.608 196.835 97.184C196.323 97.7493 196.067 98.5547 196.067 99.6C196.067 100.656 196.323 101.472 196.835 102.048C197.347 102.624 198.019 102.912 198.851 102.912C199.491 102.912 200.024 102.763 200.451 102.464C200.877 102.165 201.171 101.739 201.331 101.184H202.899C202.664 102.08 202.195 102.8 201.491 103.344C200.787 103.877 199.907 104.144 198.851 104.144C198.019 104.144 197.277 103.957 196.627 103.584C195.987 103.211 195.485 102.683 195.123 102C194.76 101.317 194.579 100.517 194.579 99.6ZM206.297 96.656C206.553 96.1547 206.916 95.7653 207.385 95.488C207.865 95.2107 208.447 95.072 209.129 95.072V96.576H208.745C207.113 96.576 206.297 97.4613 206.297 99.232V104H204.841V95.232H206.297V96.656ZM211.562 93.808C211.285 93.808 211.05 93.712 210.858 93.52C210.666 93.328 210.57 93.0933 210.57 92.816C210.57 92.5387 210.666 92.304 210.858 92.112C211.05 91.92 211.285 91.824 211.562 91.824C211.829 91.824 212.053 91.92 212.234 92.112C212.426 92.304 212.522 92.5387 212.522 92.816C212.522 93.0933 212.426 93.328 212.234 93.52C212.053 93.712 211.829 93.808 211.562 93.808ZM212.266 95.232V104H210.81V95.232H212.266ZM216.204 96.848C216.492 96.3467 216.918 95.9307 217.484 95.6C218.06 95.2587 218.726 95.088 219.484 95.088C220.262 95.088 220.966 95.2747 221.596 95.648C222.236 96.0213 222.737 96.5493 223.1 97.232C223.462 97.904 223.644 98.688 223.644 99.584C223.644 100.469 223.462 101.259 223.1 101.952C222.737 102.645 222.236 103.184 221.596 103.568C220.966 103.952 220.262 104.144 219.484 104.144C218.737 104.144 218.076 103.979 217.5 103.648C216.934 103.307 216.502 102.885 216.204 102.384V108.16H214.748V95.232H216.204V96.848ZM222.156 99.584C222.156 98.9227 222.022 98.3467 221.756 97.856C221.489 97.3653 221.126 96.992 220.668 96.736C220.22 96.48 219.724 96.352 219.18 96.352C218.646 96.352 218.15 96.4853 217.692 96.752C217.244 97.008 216.881 97.3867 216.604 97.888C216.337 98.3787 216.204 98.9493 216.204 99.6C216.204 100.261 216.337 100.843 216.604 101.344C216.881 101.835 217.244 102.213 217.692 102.48C218.15 102.736 218.646 102.864 219.18 102.864C219.724 102.864 220.22 102.736 220.668 102.48C221.126 102.213 221.489 101.835 221.756 101.344C222.022 100.843 222.156 100.256 222.156 99.584ZM227.336 96.432V101.6C227.336 102.027 227.427 102.331 227.608 102.512C227.789 102.683 228.104 102.768 228.552 102.768H229.624V104H228.312C227.501 104 226.893 103.813 226.488 103.44C226.083 103.067 225.88 102.453 225.88 101.6V96.432H224.744V95.232H225.88V93.024H227.336V95.232H229.624V96.432H227.336ZM232.14 93.808C231.863 93.808 231.628 93.712 231.436 93.52C231.244 93.328 231.148 93.0933 231.148 92.816C231.148 92.5387 231.244 92.304 231.436 92.112C231.628 91.92 231.863 91.824 232.14 91.824C232.407 91.824 232.631 91.92 232.812 92.112C233.004 92.304 233.1 92.5387 233.1 92.816C233.1 93.0933 233.004 93.328 232.812 93.52C232.631 93.712 232.407 93.808 232.14 93.808ZM232.844 95.232V104H231.388V95.232H232.844ZM239.15 104.144C238.328 104.144 237.582 103.957 236.91 103.584C236.248 103.211 235.726 102.683 235.342 102C234.968 101.307 234.782 100.507 234.782 99.6C234.782 98.704 234.974 97.9147 235.358 97.232C235.752 96.5387 236.286 96.0107 236.958 95.648C237.63 95.2747 238.382 95.088 239.214 95.088C240.046 95.088 240.798 95.2747 241.47 95.648C242.142 96.0107 242.67 96.5333 243.054 97.216C243.448 97.8987 243.646 98.6933 243.646 99.6C243.646 100.507 243.443 101.307 243.038 102C242.643 102.683 242.104 103.211 241.422 103.584C240.739 103.957 239.982 104.144 239.15 104.144ZM239.15 102.864C239.672 102.864 240.163 102.741 240.622 102.496C241.08 102.251 241.448 101.883 241.726 101.392C242.014 100.901 242.158 100.304 242.158 99.6C242.158 98.896 242.019 98.2987 241.742 97.808C241.464 97.3173 241.102 96.9547 240.654 96.72C240.206 96.4747 239.72 96.352 239.198 96.352C238.664 96.352 238.174 96.4747 237.726 96.72C237.288 96.9547 236.936 97.3173 236.67 97.808C236.403 98.2987 236.27 98.896 236.27 99.6C236.27 100.315 236.398 100.917 236.654 101.408C236.92 101.899 237.272 102.267 237.71 102.512C238.147 102.747 238.627 102.864 239.15 102.864ZM249.832 95.072C250.899 95.072 251.763 95.3973 252.424 96.048C253.085 96.688 253.416 97.616 253.416 98.832V104H251.976V99.04C251.976 98.1653 251.757 97.4987 251.32 97.04C250.883 96.5707 250.285 96.336 249.528 96.336C248.76 96.336 248.147 96.576 247.688 97.056C247.24 97.536 247.016 98.2347 247.016 99.152V104H245.56V95.232H247.016V96.48C247.304 96.032 247.693 95.6853 248.184 95.44C248.685 95.1947 249.235 95.072 249.832 95.072Z" fill="white"/>
<path d="M119.96 267.159C122.301 267.159 123.972 265.506 123.966 263.239C123.972 260.989 122.403 259.352 120.284 259.352C119.42 259.352 118.619 259.682 118.165 260.125H118.097L118.466 256.869H123.403V255.364H117.006L116.352 261.227L117.96 261.466C118.398 261.074 119.182 260.807 119.886 260.807C121.267 260.818 122.267 261.852 122.267 263.273C122.267 264.67 121.295 265.682 119.96 265.682C118.835 265.682 117.943 264.966 117.852 263.966H116.148C116.216 265.818 117.824 267.159 119.96 267.159ZM129.684 265.045H131.213V261.966H134.292V260.438H131.213V257.364H129.684V260.438H126.611V261.966H129.684V265.045ZM151.799 261.182C151.799 257.46 149.572 255.205 146.56 255.205C143.538 255.205 141.316 257.46 141.316 261.182C141.316 264.898 143.538 267.159 146.56 267.159C149.572 267.159 151.799 264.903 151.799 261.182ZM150.06 261.182C150.06 264.017 148.56 265.557 146.56 265.557C144.555 265.557 143.06 264.017 143.06 261.182C143.06 258.347 144.555 256.807 146.56 256.807C148.56 256.807 150.06 258.347 150.06 261.182ZM154.051 270.273H155.75V265.642H155.853C156.159 266.199 156.784 267.17 158.375 267.17C160.489 267.17 162.023 265.477 162.023 262.653C162.023 259.824 160.466 258.159 158.358 258.159C156.739 258.159 156.154 259.148 155.853 259.688H155.711V258.273H154.051V270.273ZM155.716 262.636C155.716 260.812 156.512 259.602 157.995 259.602C159.534 259.602 160.307 260.903 160.307 262.636C160.307 264.386 159.512 265.722 157.995 265.722C156.534 265.722 155.716 264.472 155.716 262.636ZM167.888 267.176C169.791 267.176 171.138 266.239 171.524 264.818L169.916 264.528C169.609 265.352 168.871 265.773 167.905 265.773C166.45 265.773 165.473 264.83 165.428 263.148H171.632V262.545C171.632 259.392 169.746 258.159 167.768 258.159C165.337 258.159 163.734 260.011 163.734 262.693C163.734 265.403 165.314 267.176 167.888 267.176ZM165.433 261.875C165.501 260.636 166.399 259.562 167.78 259.562C169.098 259.562 169.962 260.54 169.967 261.875H165.433ZM173.717 267H175.416V261.67C175.416 260.528 176.297 259.705 177.501 259.705C177.853 259.705 178.251 259.767 178.388 259.807V258.182C178.217 258.159 177.882 258.142 177.666 258.142C176.643 258.142 175.768 258.722 175.45 259.659H175.359V258.273H173.717V267ZM182.519 267.193C183.963 267.193 184.775 266.46 185.099 265.807H185.167V267H186.826V261.205C186.826 258.665 184.826 258.159 183.44 258.159C181.86 258.159 180.406 258.795 179.838 260.386L181.434 260.75C181.684 260.131 182.32 259.534 183.463 259.534C184.559 259.534 185.122 260.108 185.122 261.097V261.136C185.122 261.756 184.485 261.744 182.917 261.926C181.264 262.119 179.57 262.551 179.57 264.534C179.57 266.25 180.86 267.193 182.519 267.193ZM182.889 265.83C181.928 265.83 181.235 265.398 181.235 264.557C181.235 263.648 182.042 263.324 183.025 263.193C183.576 263.119 184.883 262.972 185.127 262.727V263.852C185.127 264.886 184.303 265.83 182.889 265.83ZM193.363 258.273H191.573V256.182H189.874V258.273H188.596V259.636H189.874V264.79C189.868 266.375 191.079 267.142 192.42 267.114C192.959 267.108 193.323 267.006 193.522 266.932L193.215 265.528C193.101 265.551 192.891 265.602 192.618 265.602C192.067 265.602 191.573 265.42 191.573 264.438V259.636H193.363V258.273ZM199.024 267.176C201.485 267.176 203.093 265.375 203.093 262.676C203.093 259.96 201.485 258.159 199.024 258.159C196.564 258.159 194.956 259.96 194.956 262.676C194.956 265.375 196.564 267.176 199.024 267.176ZM199.03 265.75C197.422 265.75 196.672 264.347 196.672 262.67C196.672 261 197.422 259.58 199.03 259.58C200.627 259.58 201.377 261 201.377 262.67C201.377 264.347 200.627 265.75 199.03 265.75ZM205.189 267H206.888V261.67C206.888 260.528 207.768 259.705 208.973 259.705C209.325 259.705 209.723 259.767 209.859 259.807V258.182C209.689 258.159 209.354 258.142 209.138 258.142C208.115 258.142 207.24 258.722 206.922 259.659H206.831V258.273H205.189V267ZM218.069 260.403C217.717 259.045 216.655 258.159 214.768 258.159C212.797 258.159 211.399 259.199 211.399 260.744C211.399 261.983 212.149 262.807 213.785 263.17L215.262 263.494C216.103 263.682 216.495 264.057 216.495 264.602C216.495 265.278 215.774 265.807 214.66 265.807C213.643 265.807 212.99 265.369 212.785 264.511L211.143 264.761C211.427 266.307 212.711 267.176 214.672 267.176C216.78 267.176 218.24 266.057 218.24 264.477C218.24 263.244 217.456 262.483 215.853 262.114L214.467 261.795C213.507 261.568 213.092 261.244 213.098 260.653C213.092 259.983 213.819 259.506 214.785 259.506C215.842 259.506 216.331 260.091 216.53 260.676L218.069 260.403Z" fill="white"/>
<path d="M131.67 293.364H129.932V301.909H129.824L123.903 293.364H122.278V305H124.034V296.466H124.142L130.057 305H131.67V293.364ZM137.971 305.176C140.432 305.176 142.039 303.375 142.039 300.676C142.039 297.96 140.432 296.159 137.971 296.159C135.511 296.159 133.903 297.96 133.903 300.676C133.903 303.375 135.511 305.176 137.971 305.176ZM137.977 303.75C136.369 303.75 135.619 302.347 135.619 300.67C135.619 299 136.369 297.58 137.977 297.58C139.574 297.58 140.324 299 140.324 300.67C140.324 302.347 139.574 303.75 137.977 303.75ZM148.21 296.273H146.42V294.182H144.721V296.273H143.443V297.636H144.721V302.79C144.715 304.375 145.926 305.142 147.266 305.114C147.806 305.108 148.17 305.006 148.369 304.932L148.062 303.528C147.948 303.551 147.738 303.602 147.465 303.602C146.914 303.602 146.42 303.42 146.42 302.438V297.636H148.21V296.273ZM150.289 305H151.988V296.273H150.289V305ZM151.147 294.926C151.732 294.926 152.221 294.472 152.221 293.915C152.221 293.358 151.732 292.898 151.147 292.898C150.556 292.898 150.073 293.358 150.073 293.915C150.073 294.472 150.556 294.926 151.147 294.926ZM158.627 296.273H156.746V295.489C156.746 294.716 157.064 294.295 157.894 294.295C158.246 294.295 158.496 294.375 158.655 294.426L159.053 293.051C158.814 292.96 158.32 292.818 157.632 292.818C156.252 292.818 155.041 293.625 155.041 295.261V296.273H153.695V297.636H155.041V305H156.746V297.636H158.627V296.273ZM160.58 305H162.278V296.273H160.58V305ZM161.438 294.926C162.023 294.926 162.511 294.472 162.511 293.915C162.511 293.358 162.023 292.898 161.438 292.898C160.847 292.898 160.364 293.358 160.364 293.915C160.364 294.472 160.847 294.926 161.438 294.926ZM168.44 305.176C170.503 305.176 171.838 303.938 172.025 302.239H170.372C170.156 303.182 169.423 303.739 168.451 303.739C167.014 303.739 166.088 302.54 166.088 300.636C166.088 298.767 167.031 297.591 168.451 297.591C169.531 297.591 170.19 298.273 170.372 299.091H172.025C171.843 297.33 170.406 296.159 168.423 296.159C165.963 296.159 164.372 298.011 164.372 300.676C164.372 303.307 165.906 305.176 168.44 305.176ZM176.582 305.193C178.025 305.193 178.838 304.46 179.161 303.807H179.23V305H180.889V299.205C180.889 296.665 178.889 296.159 177.502 296.159C175.923 296.159 174.468 296.795 173.9 298.386L175.497 298.75C175.747 298.131 176.383 297.534 177.525 297.534C178.622 297.534 179.184 298.108 179.184 299.097V299.136C179.184 299.756 178.548 299.744 176.98 299.926C175.326 300.119 173.633 300.551 173.633 302.534C173.633 304.25 174.923 305.193 176.582 305.193ZM176.951 303.83C175.991 303.83 175.298 303.398 175.298 302.557C175.298 301.648 176.105 301.324 177.088 301.193C177.639 301.119 178.945 300.972 179.19 300.727V301.852C179.19 302.886 178.366 303.83 176.951 303.83ZM187.425 296.273H185.636V294.182H183.937V296.273H182.658V297.636H183.937V302.79C183.931 304.375 185.141 305.142 186.482 305.114C187.022 305.108 187.386 305.006 187.584 304.932L187.278 303.528C187.164 303.551 186.954 303.602 186.681 303.602C186.13 303.602 185.636 303.42 185.636 302.438V297.636H187.425V296.273ZM189.505 305H191.203V296.273H189.505V305ZM190.363 294.926C190.948 294.926 191.436 294.472 191.436 293.915C191.436 293.358 190.948 292.898 190.363 292.898C189.772 292.898 189.289 293.358 189.289 293.915C189.289 294.472 189.772 294.926 190.363 294.926ZM197.365 305.176C199.825 305.176 201.433 303.375 201.433 300.676C201.433 297.96 199.825 296.159 197.365 296.159C194.905 296.159 193.297 297.96 193.297 300.676C193.297 303.375 194.905 305.176 197.365 305.176ZM197.371 303.75C195.763 303.75 195.013 302.347 195.013 300.67C195.013 299 195.763 297.58 197.371 297.58C198.967 297.58 199.717 299 199.717 300.67C199.717 302.347 198.967 303.75 197.371 303.75ZM205.228 299.818C205.228 298.426 206.081 297.631 207.262 297.631C208.416 297.631 209.115 298.386 209.115 299.653V305H210.814V299.449C210.814 297.29 209.626 296.159 207.842 296.159C206.53 296.159 205.672 296.767 205.268 297.693H205.16V296.273H203.53V305H205.228V299.818ZM219.832 298.403C219.48 297.045 218.417 296.159 216.531 296.159C214.559 296.159 213.161 297.199 213.161 298.744C213.161 299.983 213.911 300.807 215.548 301.17L217.025 301.494C217.866 301.682 218.258 302.057 218.258 302.602C218.258 303.278 217.536 303.807 216.423 303.807C215.406 303.807 214.752 303.369 214.548 302.511L212.906 302.761C213.19 304.307 214.474 305.176 216.434 305.176C218.542 305.176 220.002 304.057 220.002 302.477C220.002 301.244 219.218 300.483 217.616 300.114L216.23 299.795C215.269 299.568 214.855 299.244 214.86 298.653C214.855 297.983 215.582 297.506 216.548 297.506C217.605 297.506 218.093 298.091 218.292 298.676L219.832 298.403Z" fill="white"/>
<path d="M115.278 343H122.307V341.489H117.034V331.364H115.278V343ZM126.913 343.193C128.356 343.193 129.169 342.46 129.493 341.807H129.561V343H131.22V337.205C131.22 334.665 129.22 334.159 127.834 334.159C126.254 334.159 124.799 334.795 124.231 336.386L125.828 336.75C126.078 336.131 126.714 335.534 127.856 335.534C128.953 335.534 129.515 336.108 129.515 337.097V337.136C129.515 337.756 128.879 337.744 127.311 337.926C125.657 338.119 123.964 338.551 123.964 340.534C123.964 342.25 125.254 343.193 126.913 343.193ZM127.282 341.83C126.322 341.83 125.629 341.398 125.629 340.557C125.629 339.648 126.436 339.324 127.419 339.193C127.97 339.119 129.277 338.972 129.521 338.727V339.852C129.521 340.886 128.697 341.83 127.282 341.83ZM135.382 337.818C135.382 336.426 136.234 335.631 137.416 335.631C138.569 335.631 139.268 336.386 139.268 337.653V343H140.967V337.449C140.967 335.29 139.779 334.159 137.995 334.159C136.683 334.159 135.825 334.767 135.421 335.693H135.313V334.273H133.683V343H135.382V337.818ZM146.712 343.17C148.303 343.17 148.928 342.199 149.235 341.642H149.377V343H151.036V331.364H149.337V335.688H149.235C148.928 335.148 148.349 334.159 146.724 334.159C144.616 334.159 143.064 335.824 143.064 338.653C143.064 341.477 144.593 343.17 146.712 343.17ZM147.087 341.722C145.57 341.722 144.78 340.386 144.78 338.636C144.78 336.903 145.553 335.602 147.087 335.602C148.57 335.602 149.366 336.812 149.366 338.636C149.366 340.472 148.553 341.722 147.087 341.722ZM153.661 343H155.36V334.273H153.661V343ZM154.519 332.926C155.104 332.926 155.593 332.472 155.593 331.915C155.593 331.358 155.104 330.898 154.519 330.898C153.928 330.898 153.445 331.358 153.445 331.915C153.445 332.472 153.928 332.926 154.519 332.926ZM159.544 337.818C159.544 336.426 160.396 335.631 161.578 335.631C162.732 335.631 163.43 336.386 163.43 337.653V343H165.129V337.449C165.129 335.29 163.942 334.159 162.158 334.159C160.845 334.159 159.987 334.767 159.584 335.693H159.476V334.273H157.845V343H159.544V337.818ZM171.267 346.455C173.488 346.455 175.204 345.438 175.204 343.193V334.273H173.539V335.688H173.414C173.113 335.148 172.511 334.159 170.886 334.159C168.778 334.159 167.227 335.824 167.227 338.602C167.227 341.386 168.812 342.869 170.875 342.869C172.477 342.869 173.096 341.966 173.403 341.409H173.511V343.125C173.511 344.494 172.574 345.085 171.284 345.085C169.869 345.085 169.318 344.375 169.017 343.875L167.557 344.477C168.017 345.545 169.182 346.455 171.267 346.455ZM171.25 341.46C169.733 341.46 168.943 340.295 168.943 338.58C168.943 336.903 169.716 335.602 171.25 335.602C172.733 335.602 173.528 336.812 173.528 338.58C173.528 340.381 172.716 341.46 171.25 341.46ZM182.253 343H184.009V338.909H186.395C189.094 338.909 190.43 337.278 190.43 335.131C190.43 332.989 189.106 331.364 186.401 331.364H182.253V343ZM184.009 337.42V332.869H186.214C187.952 332.869 188.662 333.812 188.662 335.131C188.662 336.449 187.952 337.42 186.236 337.42H184.009ZM195.013 343.193C196.456 343.193 197.269 342.46 197.593 341.807H197.661V343H199.32V337.205C199.32 334.665 197.32 334.159 195.934 334.159C194.354 334.159 192.899 334.795 192.331 336.386L193.928 336.75C194.178 336.131 194.814 335.534 195.956 335.534C197.053 335.534 197.615 336.108 197.615 337.097V337.136C197.615 337.756 196.979 337.744 195.411 337.926C193.757 338.119 192.064 338.551 192.064 340.534C192.064 342.25 193.354 343.193 195.013 343.193ZM195.382 341.83C194.422 341.83 193.729 341.398 193.729 340.557C193.729 339.648 194.536 339.324 195.519 339.193C196.07 339.119 197.377 338.972 197.621 338.727V339.852C197.621 340.886 196.797 341.83 195.382 341.83ZM205.442 346.455C207.663 346.455 209.379 345.438 209.379 343.193V334.273H207.714V335.688H207.589C207.288 335.148 206.686 334.159 205.061 334.159C202.953 334.159 201.402 335.824 201.402 338.602C201.402 341.386 202.987 342.869 205.05 342.869C206.652 342.869 207.271 341.966 207.578 341.409H207.686V343.125C207.686 344.494 206.749 345.085 205.459 345.085C204.044 345.085 203.493 344.375 203.192 343.875L201.732 344.477C202.192 345.545 203.357 346.455 205.442 346.455ZM205.425 341.46C203.908 341.46 203.118 340.295 203.118 338.58C203.118 336.903 203.891 335.602 205.425 335.602C206.908 335.602 207.703 336.812 207.703 338.58C207.703 340.381 206.891 341.46 205.425 341.46ZM215.619 343.176C217.522 343.176 218.869 342.239 219.255 340.818L217.647 340.528C217.341 341.352 216.602 341.773 215.636 341.773C214.182 341.773 213.204 340.83 213.159 339.148H219.363V338.545C219.363 335.392 217.477 334.159 215.5 334.159C213.068 334.159 211.466 336.011 211.466 338.693C211.466 341.403 213.045 343.176 215.619 343.176ZM213.164 337.875C213.233 336.636 214.13 335.562 215.511 335.562C216.829 335.562 217.693 336.54 217.699 337.875H213.164ZM227.988 336.403C227.636 335.045 226.573 334.159 224.687 334.159C222.715 334.159 221.318 335.199 221.318 336.744C221.318 337.983 222.068 338.807 223.704 339.17L225.181 339.494C226.022 339.682 226.414 340.057 226.414 340.602C226.414 341.278 225.693 341.807 224.579 341.807C223.562 341.807 222.909 341.369 222.704 340.511L221.062 340.761C221.346 342.307 222.63 343.176 224.59 343.176C226.698 343.176 228.159 342.057 228.159 340.477C228.159 339.244 227.374 338.483 225.772 338.114L224.386 337.795C223.426 337.568 223.011 337.244 223.016 336.653C223.011 335.983 223.738 335.506 224.704 335.506C225.761 335.506 226.249 336.091 226.448 336.676L227.988 336.403Z" fill="white"/>
<rect x="99" y="386" width="139" height="44" rx="8" fill="white"/>
<path d="M124.578 414.18C123.294 414.18 122.136 413.904 121.104 413.352C120.072 412.788 119.262 412.014 118.674 411.03C118.086 410.034 117.792 408.924 117.792 407.7C117.792 406.476 118.086 405.372 118.674 404.388C119.262 403.392 120.072 402.618 121.104 402.066C122.136 401.502 123.294 401.22 124.578 401.22C125.862 401.22 127.02 401.502 128.052 402.066C129.084 402.618 129.894 403.386 130.482 404.37C131.07 405.354 131.364 406.464 131.364 407.7C131.364 408.936 131.07 410.046 130.482 411.03C129.894 412.014 129.084 412.788 128.052 413.352C127.02 413.904 125.862 414.18 124.578 414.18ZM124.578 412.128C125.418 412.128 126.174 411.942 126.846 411.57C127.518 411.186 128.046 410.658 128.43 409.986C128.814 409.302 129.006 408.54 129.006 407.7C129.006 406.86 128.814 406.104 128.43 405.432C128.046 404.748 127.518 404.22 126.846 403.848C126.174 403.464 125.418 403.272 124.578 403.272C123.738 403.272 122.982 403.464 122.31 403.848C121.638 404.22 121.11 404.748 120.726 405.432C120.342 406.104 120.15 406.86 120.15 407.7C120.15 408.54 120.342 409.302 120.726 409.986C121.11 410.658 121.638 411.186 122.31 411.57C122.982 411.942 123.738 412.128 124.578 412.128ZM135.77 405.792C136.418 404.784 137.558 404.28 139.19 404.28V406.422C138.998 406.386 138.824 406.368 138.668 406.368C137.792 406.368 137.108 406.626 136.616 407.142C136.124 407.646 135.878 408.378 135.878 409.338V414H133.628V404.388H135.77V405.792ZM150.425 400.644V414H148.265V412.758C147.893 413.214 147.431 413.556 146.879 413.784C146.339 414.012 145.739 414.126 145.079 414.126C144.155 414.126 143.321 413.922 142.577 413.514C141.845 413.106 141.269 412.53 140.849 411.786C140.429 411.03 140.219 410.166 140.219 409.194C140.219 408.222 140.429 407.364 140.849 406.62C141.269 405.876 141.845 405.3 142.577 404.892C143.321 404.484 144.155 404.28 145.079 404.28C145.715 404.28 146.297 404.388 146.825 404.604C147.353 404.82 147.803 405.144 148.175 405.576V400.644H150.425ZM145.349 412.2C145.889 412.2 146.375 412.08 146.807 411.84C147.239 411.588 147.581 411.234 147.833 410.778C148.085 410.322 148.211 409.794 148.211 409.194C148.211 408.594 148.085 408.066 147.833 407.61C147.581 407.154 147.239 406.806 146.807 406.566C146.375 406.314 145.889 406.188 145.349 406.188C144.809 406.188 144.323 406.314 143.891 406.566C143.459 406.806 143.117 407.154 142.865 407.61C142.613 408.066 142.487 408.594 142.487 409.194C142.487 409.794 142.613 410.322 142.865 410.778C143.117 411.234 143.459 411.588 143.891 411.84C144.323 412.08 144.809 412.2 145.349 412.2ZM162.405 409.248C162.405 409.404 162.393 409.626 162.369 409.914H154.827C154.959 410.622 155.301 411.186 155.853 411.606C156.417 412.014 157.113 412.218 157.941 412.218C158.997 412.218 159.867 411.87 160.551 411.174L161.757 412.56C161.325 413.076 160.779 413.466 160.119 413.73C159.459 413.994 158.715 414.126 157.887 414.126C156.831 414.126 155.901 413.916 155.097 413.496C154.293 413.076 153.669 412.494 153.225 411.75C152.793 410.994 152.577 410.142 152.577 409.194C152.577 408.258 152.787 407.418 153.207 406.674C153.639 405.918 154.233 405.33 154.989 404.91C155.745 404.49 156.597 404.28 157.545 404.28C158.481 404.28 159.315 404.49 160.047 404.91C160.791 405.318 161.367 405.9 161.775 406.656C162.195 407.4 162.405 408.264 162.405 409.248ZM157.545 406.08C156.825 406.08 156.213 406.296 155.709 406.728C155.217 407.148 154.917 407.712 154.809 408.42H160.263C160.167 407.724 159.873 407.16 159.381 406.728C158.889 406.296 158.277 406.08 157.545 406.08ZM166.708 405.792C167.356 404.784 168.496 404.28 170.128 404.28V406.422C169.936 406.386 169.762 406.368 169.606 406.368C168.73 406.368 168.046 406.626 167.554 407.142C167.062 407.646 166.816 408.378 166.816 409.338V414H164.566V404.388H166.708V405.792ZM188.511 401.4V414H186.585L179.637 405.468V414H177.315V401.4H179.241L186.189 409.932V401.4H188.511ZM195.991 414.126C195.019 414.126 194.143 413.916 193.363 413.496C192.583 413.076 191.971 412.494 191.527 411.75C191.095 410.994 190.879 410.142 190.879 409.194C190.879 408.246 191.095 407.4 191.527 406.656C191.971 405.912 192.583 405.33 193.363 404.91C194.143 404.49 195.019 404.28 195.991 404.28C196.975 404.28 197.857 404.49 198.637 404.91C199.417 405.33 200.023 405.912 200.455 406.656C200.899 407.4 201.121 408.246 201.121 409.194C201.121 410.142 200.899 410.994 200.455 411.75C200.023 412.494 199.417 413.076 198.637 413.496C197.857 413.916 196.975 414.126 195.991 414.126ZM195.991 412.2C196.819 412.2 197.503 411.924 198.043 411.372C198.583 410.82 198.853 410.094 198.853 409.194C198.853 408.294 198.583 407.568 198.043 407.016C197.503 406.464 196.819 406.188 195.991 406.188C195.163 406.188 194.479 406.464 193.939 407.016C193.411 407.568 193.147 408.294 193.147 409.194C193.147 410.094 193.411 410.82 193.939 411.372C194.479 411.924 195.163 412.2 195.991 412.2ZM218.003 404.388L214.457 414H212.297L209.813 407.376L207.293 414H205.133L201.605 404.388H203.729L206.267 411.48L208.913 404.388H210.803L213.395 411.516L216.005 404.388H218.003Z" fill="#02897A"/>
<g clip-path="url(#clip0_16_83)">
<path d="M155.895 181.182H157.906L157.923 179.213C161.614 178.932 163.753 176.972 163.761 174.014C163.753 171.108 161.562 169.565 158.528 168.884L158.026 168.764L158.06 164.503C159.193 164.767 159.884 165.491 159.986 166.565H163.523C163.48 163.744 161.375 161.724 158.094 161.366L158.111 159.364H156.099L156.082 161.349C152.75 161.673 150.398 163.685 150.415 166.591C150.406 169.165 152.222 170.639 155.17 171.347L155.989 171.551L155.946 176.06C154.557 175.795 153.619 174.943 153.526 173.52H149.955C150.04 176.963 152.298 178.889 155.912 179.205L155.895 181.182ZM157.957 176.06L157.991 172.08C159.312 172.497 160.028 173.034 160.037 174.006C160.028 175.037 159.244 175.804 157.957 176.06ZM156.014 168.244C154.949 167.878 154.182 167.324 154.199 166.344C154.199 165.432 154.847 164.724 156.048 164.477L156.014 168.244Z" fill="white"/>
</g>
<path d="M157.688 198.112C157.688 199.04 157.368 199.813 156.728 200.432C156.099 201.04 155.133 201.344 153.832 201.344H151.688V206H150.232V194.848H153.832C155.091 194.848 156.045 195.152 156.696 195.76C157.357 196.368 157.688 197.152 157.688 198.112ZM153.832 200.144C154.643 200.144 155.24 199.968 155.624 199.616C156.008 199.264 156.2 198.763 156.2 198.112C156.2 196.736 155.411 196.048 153.832 196.048H151.688V200.144H153.832ZM167.598 201.28C167.598 201.557 167.582 201.851 167.55 202.16H160.542C160.595 203.024 160.888 203.701 161.422 204.192C161.966 204.672 162.622 204.912 163.39 204.912C164.019 204.912 164.542 204.768 164.958 204.48C165.384 204.181 165.683 203.787 165.854 203.296H167.422C167.187 204.139 166.718 204.827 166.014 205.36C165.31 205.883 164.435 206.144 163.39 206.144C162.558 206.144 161.811 205.957 161.15 205.584C160.499 205.211 159.987 204.683 159.614 204C159.24 203.307 159.054 202.507 159.054 201.6C159.054 200.693 159.235 199.899 159.598 199.216C159.96 198.533 160.467 198.011 161.118 197.648C161.779 197.275 162.536 197.088 163.39 197.088C164.222 197.088 164.958 197.269 165.598 197.632C166.238 197.995 166.728 198.496 167.07 199.136C167.422 199.765 167.598 200.48 167.598 201.28ZM166.094 200.976C166.094 200.421 165.971 199.947 165.726 199.552C165.48 199.147 165.144 198.843 164.718 198.64C164.302 198.427 163.838 198.32 163.326 198.32C162.59 198.32 161.96 198.555 161.438 199.024C160.926 199.493 160.632 200.144 160.558 200.976H166.094ZM171.076 198.656C171.332 198.155 171.694 197.765 172.164 197.488C172.644 197.211 173.225 197.072 173.908 197.072V198.576H173.524C171.892 198.576 171.076 199.461 171.076 201.232V206H169.62V197.232H171.076V198.656ZM185.494 190.928L181.11 208.72H179.67L184.038 190.928H185.494ZM202.673 197.072C203.356 197.072 203.964 197.216 204.497 197.504C205.03 197.781 205.452 198.203 205.761 198.768C206.07 199.333 206.225 200.021 206.225 200.832V206H204.785V201.04C204.785 200.165 204.566 199.499 204.129 199.04C203.702 198.571 203.121 198.336 202.385 198.336C201.628 198.336 201.025 198.581 200.577 199.072C200.129 199.552 199.905 200.251 199.905 201.168V206H198.465V201.04C198.465 200.165 198.246 199.499 197.809 199.04C197.382 198.571 196.801 198.336 196.065 198.336C195.308 198.336 194.705 198.581 194.257 199.072C193.809 199.552 193.585 200.251 193.585 201.168V206H192.129V197.232H193.585V198.496C193.873 198.037 194.257 197.685 194.737 197.44C195.228 197.195 195.766 197.072 196.353 197.072C197.089 197.072 197.74 197.237 198.305 197.568C198.87 197.899 199.292 198.384 199.569 199.024C199.814 198.405 200.22 197.925 200.785 197.584C201.35 197.243 201.98 197.072 202.673 197.072ZM212.537 206.144C211.716 206.144 210.969 205.957 210.297 205.584C209.636 205.211 209.113 204.683 208.729 204C208.356 203.307 208.169 202.507 208.169 201.6C208.169 200.704 208.361 199.915 208.745 199.232C209.14 198.539 209.673 198.011 210.345 197.648C211.017 197.275 211.769 197.088 212.601 197.088C213.433 197.088 214.185 197.275 214.857 197.648C215.529 198.011 216.057 198.533 216.441 199.216C216.836 199.899 217.033 200.693 217.033 201.6C217.033 202.507 216.831 203.307 216.425 204C216.031 204.683 215.492 205.211 214.809 205.584C214.127 205.957 213.369 206.144 212.537 206.144ZM212.537 204.864C213.06 204.864 213.551 204.741 214.009 204.496C214.468 204.251 214.836 203.883 215.113 203.392C215.401 202.901 215.545 202.304 215.545 201.6C215.545 200.896 215.407 200.299 215.129 199.808C214.852 199.317 214.489 198.955 214.041 198.72C213.593 198.475 213.108 198.352 212.585 198.352C212.052 198.352 211.561 198.475 211.113 198.72C210.676 198.955 210.324 199.317 210.057 199.808C209.791 200.299 209.657 200.896 209.657 201.6C209.657 202.315 209.785 202.917 210.041 203.408C210.308 203.899 210.66 204.267 211.097 204.512C211.535 204.747 212.015 204.864 212.537 204.864ZM223.32 197.072C224.386 197.072 225.25 197.397 225.912 198.048C226.573 198.688 226.904 199.616 226.904 200.832V206H225.464V201.04C225.464 200.165 225.245 199.499 224.808 199.04C224.37 198.571 223.773 198.336 223.016 198.336C222.248 198.336 221.634 198.576 221.176 199.056C220.728 199.536 220.504 200.235 220.504 201.152V206H219.048V197.232H220.504V198.48C220.792 198.032 221.181 197.685 221.672 197.44C222.173 197.195 222.722 197.072 223.32 197.072ZM231.158 198.432V203.6C231.158 204.027 231.249 204.331 231.43 204.512C231.611 204.683 231.926 204.768 232.374 204.768H233.446V206H232.134C231.323 206 230.715 205.813 230.31 205.44C229.905 205.067 229.702 204.453 229.702 203.6V198.432H228.566V197.232H229.702V195.024H231.158V197.232H233.446V198.432H231.158ZM239.662 197.072C240.323 197.072 240.921 197.216 241.454 197.504C241.987 197.781 242.403 198.203 242.702 198.768C243.011 199.333 243.166 200.021 243.166 200.832V206H241.726V201.04C241.726 200.165 241.507 199.499 241.07 199.04C240.633 198.571 240.035 198.336 239.278 198.336C238.51 198.336 237.897 198.576 237.438 199.056C236.99 199.536 236.766 200.235 236.766 201.152V206H235.31V194.16H236.766V198.48C237.054 198.032 237.449 197.685 237.95 197.44C238.462 197.195 239.033 197.072 239.662 197.072Z" fill="#E0E0E0"/>
<path d="M133.769 166.844H110.057V177.332C111.07 176.217 112.489 175.305 114.313 174.596C116.137 173.887 118.113 173.532 120.241 173.532C124.041 173.532 127.182 174.393 129.665 176.116C132.198 177.839 134.048 180.068 135.213 182.804C136.378 185.54 136.961 188.504 136.961 191.696C136.961 197.624 135.289 202.336 131.945 205.832C128.601 209.277 123.889 211 117.809 211C113.756 211 110.234 210.316 107.245 208.948C104.256 207.529 101.95 205.579 100.329 203.096C98.7078 200.613 97.8212 197.751 97.6692 194.508H110.361C110.665 196.079 111.4 197.396 112.565 198.46C113.73 199.473 115.326 199.98 117.353 199.98C119.734 199.98 121.508 199.22 122.673 197.7C123.838 196.18 124.421 194.153 124.421 191.62C124.421 189.137 123.813 187.237 122.597 185.92C121.381 184.603 119.608 183.944 117.277 183.944C115.554 183.944 114.136 184.375 113.021 185.236C111.906 186.047 111.172 187.136 110.817 188.504H98.2772V155.444H133.769V166.844Z" fill="white"/>
</g>
<defs>
<filter id="filter0_d_16_83" x="0" y="0" width="338.649" height="472" filterUnits="userSpaceOnUse" color-interpolation-filters="sRGB">
<feFlood flood-opacity="0" result="BackgroundImageFix"/>
<feColorMatrix in="SourceAlpha" type="matrix" values="0 0 0 0 0 0 0 0 0 0 0 0 0 0 0 0 0 0 127 0" result="hardAlpha"/>
<feOffset dy="2"/>
<feGaussianBlur stdDeviation="4"/>
<feColorMatrix type="matrix" values="0 0 0 0 0 0 0 0 0 0 0 0 0 0 0 0 0 0 0.25 0"/>
<feBlend mode="normal" in2="BackgroundImageFix" result="effect1_dropShadow_16_83"/>
<feBlend mode="normal" in="SourceGraphic" in2="effect1_dropShadow_16_83" result="shape"/>
</filter>
<clipPath id="clip0_16_83">
<rect width="16" height="29" fill="white" transform="translate(149 155)"/>
</clipPath>
</defs>
</svg>
