<svg width="339" height="472" viewBox="0 0 339 472" fill="none" xmlns="http://www.w3.org/2000/svg">
<g filter="url(#filter0_d_16_64)">
<rect x="8" y="6" width="322.649" height="456" rx="8" fill="white"/>
<path d="M125.328 46.576C125.328 47.552 125.104 48.448 124.656 49.264C124.208 50.064 123.52 50.712 122.592 51.208C121.664 51.704 120.512 51.952 119.136 51.952H116.592V58H112.488V41.152H119.136C120.48 41.152 121.616 41.384 122.544 41.848C123.472 42.312 124.168 42.952 124.632 43.768C125.096 44.584 125.328 45.52 125.328 46.576ZM118.824 48.688C119.608 48.688 120.192 48.504 120.576 48.136C120.96 47.768 121.152 47.248 121.152 46.576C121.152 45.904 120.96 45.384 120.576 45.016C120.192 44.648 119.608 44.464 118.824 44.464H116.592V48.688H118.824ZM131.569 46.84C132.049 46.104 132.649 45.528 133.369 45.112C134.089 44.68 134.889 44.464 135.769 44.464V48.808H134.641C133.617 48.808 132.849 49.032 132.337 49.48C131.825 49.912 131.569 50.68 131.569 51.784V58H127.465V44.608H131.569V46.84ZM150.354 51.088C150.354 51.472 150.33 51.872 150.282 52.288H140.994C141.058 53.12 141.322 53.76 141.786 54.208C142.266 54.64 142.85 54.856 143.538 54.856C144.562 54.856 145.274 54.424 145.674 53.56H150.042C149.818 54.44 149.41 55.232 148.818 55.936C148.242 56.64 147.514 57.192 146.634 57.592C145.754 57.992 144.77 58.192 143.682 58.192C142.37 58.192 141.202 57.912 140.178 57.352C139.154 56.792 138.354 55.992 137.778 54.952C137.202 53.912 136.914 52.696 136.914 51.304C136.914 49.912 137.194 48.696 137.754 47.656C138.33 46.616 139.13 45.816 140.154 45.256C141.178 44.696 142.354 44.416 143.682 44.416C144.978 44.416 146.13 44.688 147.138 45.232C148.146 45.776 148.93 46.552 149.49 47.56C150.066 48.568 150.354 49.744 150.354 51.088ZM146.154 50.008C146.154 49.304 145.914 48.744 145.434 48.328C144.954 47.912 144.354 47.704 143.634 47.704C142.946 47.704 142.362 47.904 141.882 48.304C141.418 48.704 141.13 49.272 141.018 50.008H146.154ZM169.607 44.464C171.271 44.464 172.591 44.968 173.567 45.976C174.559 46.984 175.055 48.384 175.055 50.176V58H170.975V50.728C170.975 49.864 170.743 49.2 170.279 48.736C169.831 48.256 169.207 48.016 168.407 48.016C167.607 48.016 166.975 48.256 166.511 48.736C166.063 49.2 165.839 49.864 165.839 50.728V58H161.759V50.728C161.759 49.864 161.527 49.2 161.063 48.736C160.615 48.256 159.991 48.016 159.191 48.016C158.391 48.016 157.759 48.256 157.295 48.736C156.847 49.2 156.623 49.864 156.623 50.728V58H152.519V44.608H156.623V46.288C157.039 45.728 157.583 45.288 158.255 44.968C158.927 44.632 159.687 44.464 160.535 44.464C161.543 44.464 162.439 44.68 163.223 45.112C164.023 45.544 164.647 46.16 165.095 46.96C165.559 46.224 166.191 45.624 166.991 45.16C167.791 44.696 168.663 44.464 169.607 44.464ZM179.99 43.216C179.27 43.216 178.678 43.008 178.214 42.592C177.766 42.16 177.542 41.632 177.542 41.008C177.542 40.368 177.766 39.84 178.214 39.424C178.678 38.992 179.27 38.776 179.99 38.776C180.694 38.776 181.27 38.992 181.718 39.424C182.182 39.84 182.414 40.368 182.414 41.008C182.414 41.632 182.182 42.16 181.718 42.592C181.27 43.008 180.694 43.216 179.99 43.216ZM182.03 44.608V58H177.926V44.608H182.03ZM198.228 44.608V58H194.124V56.176C193.708 56.768 193.14 57.248 192.42 57.616C191.716 57.968 190.932 58.144 190.068 58.144C189.044 58.144 188.14 57.92 187.356 57.472C186.572 57.008 185.964 56.344 185.532 55.48C185.1 54.616 184.884 53.6 184.884 52.432V44.608H188.964V51.88C188.964 52.776 189.196 53.472 189.66 53.968C190.124 54.464 190.748 54.712 191.532 54.712C192.332 54.712 192.964 54.464 193.428 53.968C193.892 53.472 194.124 52.776 194.124 51.88V44.608H198.228ZM218.264 44.464C219.928 44.464 221.248 44.968 222.224 45.976C223.216 46.984 223.712 48.384 223.712 50.176V58H219.632V50.728C219.632 49.864 219.4 49.2 218.936 48.736C218.488 48.256 217.864 48.016 217.064 48.016C216.264 48.016 215.632 48.256 215.168 48.736C214.72 49.2 214.496 49.864 214.496 50.728V58H210.416V50.728C210.416 49.864 210.184 49.2 209.72 48.736C209.272 48.256 208.648 48.016 207.848 48.016C207.048 48.016 206.416 48.256 205.952 48.736C205.504 49.2 205.28 49.864 205.28 50.728V58H201.176V44.608H205.28V46.288C205.696 45.728 206.24 45.288 206.912 44.968C207.584 44.632 208.344 44.464 209.192 44.464C210.2 44.464 211.096 44.68 211.88 45.112C212.68 45.544 213.304 46.16 213.752 46.96C214.216 46.224 214.848 45.624 215.648 45.16C216.448 44.696 217.32 44.464 218.264 44.464Z" fill="#22343D"/>
<path d="M87.816 98.256C88.2213 98.32 88.5893 98.4853 88.92 98.752C89.2613 99.0187 89.528 99.3493 89.72 99.744C89.9227 100.139 90.024 100.56 90.024 101.008C90.024 101.573 89.88 102.085 89.592 102.544C89.304 102.992 88.8827 103.349 88.328 103.616C87.784 103.872 87.1387 104 86.392 104H82.232V92.848H86.232C86.9893 92.848 87.6347 92.976 88.168 93.232C88.7013 93.4773 89.1013 93.8133 89.368 94.24C89.6347 94.6667 89.768 95.1467 89.768 95.68C89.768 96.3413 89.5867 96.8907 89.224 97.328C88.872 97.7547 88.4027 98.064 87.816 98.256ZM83.688 97.664H86.136C86.8187 97.664 87.3467 97.504 87.72 97.184C88.0933 96.864 88.28 96.4213 88.28 95.856C88.28 95.2907 88.0933 94.848 87.72 94.528C87.3467 94.208 86.808 94.048 86.104 94.048H83.688V97.664ZM86.264 102.8C86.9893 102.8 87.5547 102.629 87.96 102.288C88.3653 101.947 88.568 101.472 88.568 100.864C88.568 100.245 88.3547 99.76 87.928 99.408C87.5013 99.0453 86.9307 98.864 86.216 98.864H83.688V102.8H86.264ZM93.5005 96.656C93.7565 96.1547 94.1192 95.7653 94.5885 95.488C95.0685 95.2107 95.6498 95.072 96.3325 95.072V96.576H95.9485C94.3165 96.576 93.5005 97.4613 93.5005 99.232V104H92.0445V95.232H93.5005V96.656ZM98.7653 93.808C98.4879 93.808 98.2533 93.712 98.0613 93.52C97.8693 93.328 97.7733 93.0933 97.7733 92.816C97.7733 92.5387 97.8693 92.304 98.0613 92.112C98.2533 91.92 98.4879 91.824 98.7653 91.824C99.0319 91.824 99.2559 91.92 99.4373 92.112C99.6293 92.304 99.7253 92.5387 99.7253 92.816C99.7253 93.0933 99.6293 93.328 99.4373 93.52C99.2559 93.712 99.0319 93.808 98.7653 93.808ZM99.4693 95.232V104H98.0133V95.232H99.4693ZM109.951 99.28C109.951 99.5573 109.935 99.8507 109.903 100.16H102.895C102.948 101.024 103.241 101.701 103.775 102.192C104.319 102.672 104.975 102.912 105.743 102.912C106.372 102.912 106.895 102.768 107.311 102.48C107.737 102.181 108.036 101.787 108.207 101.296H109.775C109.54 102.139 109.071 102.827 108.367 103.36C107.663 103.883 106.788 104.144 105.743 104.144C104.911 104.144 104.164 103.957 103.503 103.584C102.852 103.211 102.34 102.683 101.967 102C101.593 101.307 101.407 100.507 101.407 99.6C101.407 98.6933 101.588 97.8987 101.951 97.216C102.313 96.5333 102.82 96.0107 103.471 95.648C104.132 95.2747 104.889 95.088 105.743 95.088C106.575 95.088 107.311 95.2693 107.951 95.632C108.591 95.9947 109.081 96.496 109.423 97.136C109.775 97.7653 109.951 98.48 109.951 99.28ZM108.447 98.976C108.447 98.4213 108.324 97.9467 108.079 97.552C107.833 97.1467 107.497 96.8427 107.071 96.64C106.655 96.4267 106.191 96.32 105.679 96.32C104.943 96.32 104.313 96.5547 103.791 97.024C103.279 97.4933 102.985 98.144 102.911 98.976H108.447ZM115.441 96.432H113.601V104H112.145V96.432H111.009V95.232H112.145V94.608C112.145 93.6267 112.395 92.912 112.897 92.464C113.409 92.0053 114.225 91.776 115.345 91.776V92.992C114.705 92.992 114.251 93.12 113.985 93.376C113.729 93.6213 113.601 94.032 113.601 94.608V95.232H115.441V96.432ZM122.86 96.848C123.148 96.3467 123.575 95.9307 124.14 95.6C124.716 95.2587 125.383 95.088 126.14 95.088C126.919 95.088 127.623 95.2747 128.252 95.648C128.892 96.0213 129.393 96.5493 129.756 97.232C130.119 97.904 130.3 98.688 130.3 99.584C130.3 100.469 130.119 101.259 129.756 101.952C129.393 102.645 128.892 103.184 128.252 103.568C127.623 103.952 126.919 104.144 126.14 104.144C125.393 104.144 124.732 103.979 124.156 103.648C123.591 103.307 123.159 102.885 122.86 102.384V108.16H121.404V95.232H122.86V96.848ZM128.812 99.584C128.812 98.9227 128.679 98.3467 128.412 97.856C128.145 97.3653 127.783 96.992 127.324 96.736C126.876 96.48 126.38 96.352 125.836 96.352C125.303 96.352 124.807 96.4853 124.348 96.752C123.9 97.008 123.537 97.3867 123.26 97.888C122.993 98.3787 122.86 98.9493 122.86 99.6C122.86 100.261 122.993 100.843 123.26 101.344C123.537 101.835 123.9 102.213 124.348 102.48C124.807 102.736 125.303 102.864 125.836 102.864C126.38 102.864 126.876 102.736 127.324 102.48C127.783 102.213 128.145 101.835 128.412 101.344C128.679 100.843 128.812 100.256 128.812 99.584ZM133.672 96.656C133.928 96.1547 134.291 95.7653 134.76 95.488C135.24 95.2107 135.822 95.072 136.504 95.072V96.576H136.12C134.488 96.576 133.672 97.4613 133.672 99.232V104H132.216V95.232H133.672V96.656ZM138.937 93.808C138.66 93.808 138.425 93.712 138.233 93.52C138.041 93.328 137.945 93.0933 137.945 92.816C137.945 92.5387 138.041 92.304 138.233 92.112C138.425 91.92 138.66 91.824 138.937 91.824C139.204 91.824 139.428 91.92 139.609 92.112C139.801 92.304 139.897 92.5387 139.897 92.816C139.897 93.0933 139.801 93.328 139.609 93.52C139.428 93.712 139.204 93.808 138.937 93.808ZM139.641 95.232V104H138.185V95.232H139.641ZM141.579 99.6C141.579 98.6933 141.76 97.904 142.123 97.232C142.485 96.5493 142.987 96.0213 143.627 95.648C144.277 95.2747 145.019 95.088 145.851 95.088C146.928 95.088 147.813 95.3493 148.507 95.872C149.211 96.3947 149.675 97.12 149.899 98.048H148.331C148.181 97.5147 147.888 97.0933 147.451 96.784C147.024 96.4747 146.491 96.32 145.851 96.32C145.019 96.32 144.347 96.608 143.835 97.184C143.323 97.7493 143.067 98.5547 143.067 99.6C143.067 100.656 143.323 101.472 143.835 102.048C144.347 102.624 145.019 102.912 145.851 102.912C146.491 102.912 147.024 102.763 147.451 102.464C147.877 102.165 148.171 101.739 148.331 101.184H149.899C149.664 102.08 149.195 102.8 148.491 103.344C147.787 103.877 146.907 104.144 145.851 104.144C145.019 104.144 144.277 103.957 143.627 103.584C142.987 103.211 142.485 102.683 142.123 102C141.76 101.317 141.579 100.517 141.579 99.6ZM159.841 99.28C159.841 99.5573 159.825 99.8507 159.793 100.16H152.785C152.839 101.024 153.132 101.701 153.665 102.192C154.209 102.672 154.865 102.912 155.633 102.912C156.263 102.912 156.785 102.768 157.201 102.48C157.628 102.181 157.927 101.787 158.097 101.296H159.665C159.431 102.139 158.961 102.827 158.257 103.36C157.553 103.883 156.679 104.144 155.633 104.144C154.801 104.144 154.055 103.957 153.393 103.584C152.743 103.211 152.231 102.683 151.857 102C151.484 101.307 151.297 100.507 151.297 99.6C151.297 98.6933 151.479 97.8987 151.841 97.216C152.204 96.5333 152.711 96.0107 153.361 95.648C154.023 95.2747 154.78 95.088 155.633 95.088C156.465 95.088 157.201 95.2693 157.841 95.632C158.481 95.9947 158.972 96.496 159.313 97.136C159.665 97.7653 159.841 98.48 159.841 99.28ZM158.337 98.976C158.337 98.4213 158.215 97.9467 157.969 97.552C157.724 97.1467 157.388 96.8427 156.961 96.64C156.545 96.4267 156.081 96.32 155.569 96.32C154.833 96.32 154.204 96.5547 153.681 97.024C153.169 97.4933 152.876 98.144 152.801 98.976H158.337ZM165.485 99.584C165.485 98.688 165.666 97.904 166.029 97.232C166.392 96.5493 166.888 96.0213 167.517 95.648C168.157 95.2747 168.872 95.088 169.661 95.088C170.344 95.088 170.978 95.248 171.565 95.568C172.152 95.8773 172.6 96.288 172.909 96.8V92.16H174.381V104H172.909V102.352C172.621 102.875 172.194 103.307 171.629 103.648C171.064 103.979 170.402 104.144 169.645 104.144C168.866 104.144 168.157 103.952 167.517 103.568C166.888 103.184 166.392 102.645 166.029 101.952C165.666 101.259 165.485 100.469 165.485 99.584ZM172.909 99.6C172.909 98.9387 172.776 98.3627 172.509 97.872C172.242 97.3813 171.88 97.008 171.421 96.752C170.973 96.4853 170.477 96.352 169.933 96.352C169.389 96.352 168.893 96.48 168.445 96.736C167.997 96.992 167.64 97.3653 167.373 97.856C167.106 98.3467 166.973 98.9227 166.973 99.584C166.973 100.256 167.106 100.843 167.373 101.344C167.64 101.835 167.997 102.213 168.445 102.48C168.893 102.736 169.389 102.864 169.933 102.864C170.477 102.864 170.973 102.736 171.421 102.48C171.88 102.213 172.242 101.835 172.509 101.344C172.776 100.843 172.909 100.261 172.909 99.6ZM184.841 99.28C184.841 99.5573 184.825 99.8507 184.793 100.16H177.785C177.839 101.024 178.132 101.701 178.665 102.192C179.209 102.672 179.865 102.912 180.633 102.912C181.263 102.912 181.785 102.768 182.201 102.48C182.628 102.181 182.927 101.787 183.097 101.296H184.665C184.431 102.139 183.961 102.827 183.257 103.36C182.553 103.883 181.679 104.144 180.633 104.144C179.801 104.144 179.055 103.957 178.393 103.584C177.743 103.211 177.231 102.683 176.857 102C176.484 101.307 176.297 100.507 176.297 99.6C176.297 98.6933 176.479 97.8987 176.841 97.216C177.204 96.5333 177.711 96.0107 178.361 95.648C179.023 95.2747 179.78 95.088 180.633 95.088C181.465 95.088 182.201 95.2693 182.841 95.632C183.481 95.9947 183.972 96.496 184.313 97.136C184.665 97.7653 184.841 98.48 184.841 99.28ZM183.337 98.976C183.337 98.4213 183.215 97.9467 182.969 97.552C182.724 97.1467 182.388 96.8427 181.961 96.64C181.545 96.4267 181.081 96.32 180.569 96.32C179.833 96.32 179.204 96.5547 178.681 97.024C178.169 97.4933 177.876 98.144 177.801 98.976H183.337ZM189.867 104.144C189.195 104.144 188.593 104.032 188.059 103.808C187.526 103.573 187.105 103.253 186.795 102.848C186.486 102.432 186.315 101.957 186.283 101.424H187.787C187.83 101.861 188.033 102.219 188.395 102.496C188.769 102.773 189.254 102.912 189.851 102.912C190.406 102.912 190.843 102.789 191.163 102.544C191.483 102.299 191.643 101.989 191.643 101.616C191.643 101.232 191.473 100.949 191.131 100.768C190.79 100.576 190.262 100.389 189.547 100.208C188.897 100.037 188.363 99.8667 187.947 99.696C187.542 99.5147 187.19 99.2533 186.891 98.912C186.603 98.56 186.459 98.1013 186.459 97.536C186.459 97.088 186.593 96.6773 186.859 96.304C187.126 95.9307 187.505 95.6373 187.995 95.424C188.486 95.2 189.046 95.088 189.675 95.088C190.646 95.088 191.43 95.3333 192.027 95.824C192.625 96.3147 192.945 96.9867 192.987 97.84H191.531C191.499 97.3813 191.313 97.0133 190.971 96.736C190.641 96.4587 190.193 96.32 189.627 96.32C189.105 96.32 188.689 96.432 188.379 96.656C188.07 96.88 187.915 97.1733 187.915 97.536C187.915 97.824 188.006 98.064 188.187 98.256C188.379 98.4373 188.614 98.5867 188.891 98.704C189.179 98.8107 189.574 98.9333 190.075 99.072C190.705 99.2427 191.217 99.4133 191.611 99.584C192.006 99.744 192.342 99.9893 192.619 100.32C192.907 100.651 193.057 101.083 193.067 101.616C193.067 102.096 192.934 102.528 192.667 102.912C192.401 103.296 192.022 103.6 191.531 103.824C191.051 104.037 190.497 104.144 189.867 104.144ZM194.579 99.6C194.579 98.6933 194.76 97.904 195.123 97.232C195.485 96.5493 195.987 96.0213 196.627 95.648C197.277 95.2747 198.019 95.088 198.851 95.088C199.928 95.088 200.813 95.3493 201.507 95.872C202.211 96.3947 202.675 97.12 202.899 98.048H201.331C201.181 97.5147 200.888 97.0933 200.451 96.784C200.024 96.4747 199.491 96.32 198.851 96.32C198.019 96.32 197.347 96.608 196.835 97.184C196.323 97.7493 196.067 98.5547 196.067 99.6C196.067 100.656 196.323 101.472 196.835 102.048C197.347 102.624 198.019 102.912 198.851 102.912C199.491 102.912 200.024 102.763 200.451 102.464C200.877 102.165 201.171 101.739 201.331 101.184H202.899C202.664 102.08 202.195 102.8 201.491 103.344C200.787 103.877 199.907 104.144 198.851 104.144C198.019 104.144 197.277 103.957 196.627 103.584C195.987 103.211 195.485 102.683 195.123 102C194.76 101.317 194.579 100.517 194.579 99.6ZM206.297 96.656C206.553 96.1547 206.916 95.7653 207.385 95.488C207.865 95.2107 208.447 95.072 209.129 95.072V96.576H208.745C207.113 96.576 206.297 97.4613 206.297 99.232V104H204.841V95.232H206.297V96.656ZM211.562 93.808C211.285 93.808 211.05 93.712 210.858 93.52C210.666 93.328 210.57 93.0933 210.57 92.816C210.57 92.5387 210.666 92.304 210.858 92.112C211.05 91.92 211.285 91.824 211.562 91.824C211.829 91.824 212.053 91.92 212.234 92.112C212.426 92.304 212.522 92.5387 212.522 92.816C212.522 93.0933 212.426 93.328 212.234 93.52C212.053 93.712 211.829 93.808 211.562 93.808ZM212.266 95.232V104H210.81V95.232H212.266ZM216.204 96.848C216.492 96.3467 216.918 95.9307 217.484 95.6C218.06 95.2587 218.726 95.088 219.484 95.088C220.262 95.088 220.966 95.2747 221.596 95.648C222.236 96.0213 222.737 96.5493 223.1 97.232C223.462 97.904 223.644 98.688 223.644 99.584C223.644 100.469 223.462 101.259 223.1 101.952C222.737 102.645 222.236 103.184 221.596 103.568C220.966 103.952 220.262 104.144 219.484 104.144C218.737 104.144 218.076 103.979 217.5 103.648C216.934 103.307 216.502 102.885 216.204 102.384V108.16H214.748V95.232H216.204V96.848ZM222.156 99.584C222.156 98.9227 222.022 98.3467 221.756 97.856C221.489 97.3653 221.126 96.992 220.668 96.736C220.22 96.48 219.724 96.352 219.18 96.352C218.646 96.352 218.15 96.4853 217.692 96.752C217.244 97.008 216.881 97.3867 216.604 97.888C216.337 98.3787 216.204 98.9493 216.204 99.6C216.204 100.261 216.337 100.843 216.604 101.344C216.881 101.835 217.244 102.213 217.692 102.48C218.15 102.736 218.646 102.864 219.18 102.864C219.724 102.864 220.22 102.736 220.668 102.48C221.126 102.213 221.489 101.835 221.756 101.344C222.022 100.843 222.156 100.256 222.156 99.584ZM227.336 96.432V101.6C227.336 102.027 227.427 102.331 227.608 102.512C227.789 102.683 228.104 102.768 228.552 102.768H229.624V104H228.312C227.501 104 226.893 103.813 226.488 103.44C226.083 103.067 225.88 102.453 225.88 101.6V96.432H224.744V95.232H225.88V93.024H227.336V95.232H229.624V96.432H227.336ZM232.14 93.808C231.863 93.808 231.628 93.712 231.436 93.52C231.244 93.328 231.148 93.0933 231.148 92.816C231.148 92.5387 231.244 92.304 231.436 92.112C231.628 91.92 231.863 91.824 232.14 91.824C232.407 91.824 232.631 91.92 232.812 92.112C233.004 92.304 233.1 92.5387 233.1 92.816C233.1 93.0933 233.004 93.328 232.812 93.52C232.631 93.712 232.407 93.808 232.14 93.808ZM232.844 95.232V104H231.388V95.232H232.844ZM239.15 104.144C238.328 104.144 237.582 103.957 236.91 103.584C236.248 103.211 235.726 102.683 235.342 102C234.968 101.307 234.782 100.507 234.782 99.6C234.782 98.704 234.974 97.9147 235.358 97.232C235.752 96.5387 236.286 96.0107 236.958 95.648C237.63 95.2747 238.382 95.088 239.214 95.088C240.046 95.088 240.798 95.2747 241.47 95.648C242.142 96.0107 242.67 96.5333 243.054 97.216C243.448 97.8987 243.646 98.6933 243.646 99.6C243.646 100.507 243.443 101.307 243.038 102C242.643 102.683 242.104 103.211 241.422 103.584C240.739 103.957 239.982 104.144 239.15 104.144ZM239.15 102.864C239.672 102.864 240.163 102.741 240.622 102.496C241.08 102.251 241.448 101.883 241.726 101.392C242.014 100.901 242.158 100.304 242.158 99.6C242.158 98.896 242.019 98.2987 241.742 97.808C241.464 97.3173 241.102 96.9547 240.654 96.72C240.206 96.4747 239.72 96.352 239.198 96.352C238.664 96.352 238.174 96.4747 237.726 96.72C237.288 96.9547 236.936 97.3173 236.67 97.808C236.403 98.2987 236.27 98.896 236.27 99.6C236.27 100.315 236.398 100.917 236.654 101.408C236.92 101.899 237.272 102.267 237.71 102.512C238.147 102.747 238.627 102.864 239.15 102.864ZM249.832 95.072C250.899 95.072 251.763 95.3973 252.424 96.048C253.085 96.688 253.416 97.616 253.416 98.832V104H251.976V99.04C251.976 98.1653 251.757 97.4987 251.32 97.04C250.883 96.5707 250.285 96.336 249.528 96.336C248.76 96.336 248.147 96.576 247.688 97.056C247.24 97.536 247.016 98.2347 247.016 99.152V104H245.56V95.232H247.016V96.48C247.304 96.032 247.693 95.6853 248.184 95.44C248.685 95.1947 249.235 95.072 249.832 95.072Z" fill="#22343D"/>
<rect x="99" y="386" width="139" height="44" rx="8" fill="#02897A"/>
<path d="M124.578 414.18C123.294 414.18 122.136 413.904 121.104 413.352C120.072 412.788 119.262 412.014 118.674 411.03C118.086 410.034 117.792 408.924 117.792 407.7C117.792 406.476 118.086 405.372 118.674 404.388C119.262 403.392 120.072 402.618 121.104 402.066C122.136 401.502 123.294 401.22 124.578 401.22C125.862 401.22 127.02 401.502 128.052 402.066C129.084 402.618 129.894 403.386 130.482 404.37C131.07 405.354 131.364 406.464 131.364 407.7C131.364 408.936 131.07 410.046 130.482 411.03C129.894 412.014 129.084 412.788 128.052 413.352C127.02 413.904 125.862 414.18 124.578 414.18ZM124.578 412.128C125.418 412.128 126.174 411.942 126.846 411.57C127.518 411.186 128.046 410.658 128.43 409.986C128.814 409.302 129.006 408.54 129.006 407.7C129.006 406.86 128.814 406.104 128.43 405.432C128.046 404.748 127.518 404.22 126.846 403.848C126.174 403.464 125.418 403.272 124.578 403.272C123.738 403.272 122.982 403.464 122.31 403.848C121.638 404.22 121.11 404.748 120.726 405.432C120.342 406.104 120.15 406.86 120.15 407.7C120.15 408.54 120.342 409.302 120.726 409.986C121.11 410.658 121.638 411.186 122.31 411.57C122.982 411.942 123.738 412.128 124.578 412.128ZM135.77 405.792C136.418 404.784 137.558 404.28 139.19 404.28V406.422C138.998 406.386 138.824 406.368 138.668 406.368C137.792 406.368 137.108 406.626 136.616 407.142C136.124 407.646 135.878 408.378 135.878 409.338V414H133.628V404.388H135.77V405.792ZM150.425 400.644V414H148.265V412.758C147.893 413.214 147.431 413.556 146.879 413.784C146.339 414.012 145.739 414.126 145.079 414.126C144.155 414.126 143.321 413.922 142.577 413.514C141.845 413.106 141.269 412.53 140.849 411.786C140.429 411.03 140.219 410.166 140.219 409.194C140.219 408.222 140.429 407.364 140.849 406.62C141.269 405.876 141.845 405.3 142.577 404.892C143.321 404.484 144.155 404.28 145.079 404.28C145.715 404.28 146.297 404.388 146.825 404.604C147.353 404.82 147.803 405.144 148.175 405.576V400.644H150.425ZM145.349 412.2C145.889 412.2 146.375 412.08 146.807 411.84C147.239 411.588 147.581 411.234 147.833 410.778C148.085 410.322 148.211 409.794 148.211 409.194C148.211 408.594 148.085 408.066 147.833 407.61C147.581 407.154 147.239 406.806 146.807 406.566C146.375 406.314 145.889 406.188 145.349 406.188C144.809 406.188 144.323 406.314 143.891 406.566C143.459 406.806 143.117 407.154 142.865 407.61C142.613 408.066 142.487 408.594 142.487 409.194C142.487 409.794 142.613 410.322 142.865 410.778C143.117 411.234 143.459 411.588 143.891 411.84C144.323 412.08 144.809 412.2 145.349 412.2ZM162.405 409.248C162.405 409.404 162.393 409.626 162.369 409.914H154.827C154.959 410.622 155.301 411.186 155.853 411.606C156.417 412.014 157.113 412.218 157.941 412.218C158.997 412.218 159.867 411.87 160.551 411.174L161.757 412.56C161.325 413.076 160.779 413.466 160.119 413.73C159.459 413.994 158.715 414.126 157.887 414.126C156.831 414.126 155.901 413.916 155.097 413.496C154.293 413.076 153.669 412.494 153.225 411.75C152.793 410.994 152.577 410.142 152.577 409.194C152.577 408.258 152.787 407.418 153.207 406.674C153.639 405.918 154.233 405.33 154.989 404.91C155.745 404.49 156.597 404.28 157.545 404.28C158.481 404.28 159.315 404.49 160.047 404.91C160.791 405.318 161.367 405.9 161.775 406.656C162.195 407.4 162.405 408.264 162.405 409.248ZM157.545 406.08C156.825 406.08 156.213 406.296 155.709 406.728C155.217 407.148 154.917 407.712 154.809 408.42H160.263C160.167 407.724 159.873 407.16 159.381 406.728C158.889 406.296 158.277 406.08 157.545 406.08ZM166.708 405.792C167.356 404.784 168.496 404.28 170.128 404.28V406.422C169.936 406.386 169.762 406.368 169.606 406.368C168.73 406.368 168.046 406.626 167.554 407.142C167.062 407.646 166.816 408.378 166.816 409.338V414H164.566V404.388H166.708V405.792ZM188.511 401.4V414H186.585L179.637 405.468V414H177.315V401.4H179.241L186.189 409.932V401.4H188.511ZM195.991 414.126C195.019 414.126 194.143 413.916 193.363 413.496C192.583 413.076 191.971 412.494 191.527 411.75C191.095 410.994 190.879 410.142 190.879 409.194C190.879 408.246 191.095 407.4 191.527 406.656C191.971 405.912 192.583 405.33 193.363 404.91C194.143 404.49 195.019 404.28 195.991 404.28C196.975 404.28 197.857 404.49 198.637 404.91C199.417 405.33 200.023 405.912 200.455 406.656C200.899 407.4 201.121 408.246 201.121 409.194C201.121 410.142 200.899 410.994 200.455 411.75C200.023 412.494 199.417 413.076 198.637 413.496C197.857 413.916 196.975 414.126 195.991 414.126ZM195.991 412.2C196.819 412.2 197.503 411.924 198.043 411.372C198.583 410.82 198.853 410.094 198.853 409.194C198.853 408.294 198.583 407.568 198.043 407.016C197.503 406.464 196.819 406.188 195.991 406.188C195.163 406.188 194.479 406.464 193.939 407.016C193.411 407.568 193.147 408.294 193.147 409.194C193.147 410.094 193.411 410.82 193.939 411.372C194.479 411.924 195.163 412.2 195.991 412.2ZM218.003 404.388L214.457 414H212.297L209.813 407.376L207.293 414H205.133L201.605 404.388H203.729L206.267 411.48L208.913 404.388H210.803L213.395 411.516L216.005 404.388H218.003Z" fill="white"/>
<g clip-path="url(#clip0_16_64)">
<path d="M170.895 184.182H172.906L172.923 182.213C176.614 181.932 178.753 179.972 178.761 177.014C178.753 174.108 176.562 172.565 173.528 171.884L173.026 171.764L173.06 167.503C174.193 167.767 174.884 168.491 174.986 169.565H178.523C178.48 166.744 176.375 164.724 173.094 164.366L173.111 162.364H171.099L171.082 164.349C167.75 164.673 165.398 166.685 165.415 169.591C165.406 172.165 167.222 173.639 170.17 174.347L170.989 174.551L170.946 179.06C169.557 178.795 168.619 177.943 168.526 176.52H164.955C165.04 179.963 167.298 181.889 170.912 182.205L170.895 184.182ZM172.957 179.06L172.991 175.08C174.312 175.497 175.028 176.034 175.037 177.006C175.028 178.037 174.244 178.804 172.957 179.06ZM171.014 171.244C169.949 170.878 169.182 170.324 169.199 169.344C169.199 168.432 169.847 167.724 171.048 167.477L171.014 171.244Z" fill="#02897A"/>
</g>
<path d="M172.688 198.112C172.688 199.04 172.368 199.813 171.728 200.432C171.099 201.04 170.133 201.344 168.832 201.344H166.688V206H165.232V194.848H168.832C170.091 194.848 171.045 195.152 171.696 195.76C172.357 196.368 172.688 197.152 172.688 198.112ZM168.832 200.144C169.643 200.144 170.24 199.968 170.624 199.616C171.008 199.264 171.2 198.763 171.2 198.112C171.2 196.736 170.411 196.048 168.832 196.048H166.688V200.144H168.832ZM182.598 201.28C182.598 201.557 182.582 201.851 182.55 202.16H175.542C175.595 203.024 175.888 203.701 176.422 204.192C176.966 204.672 177.622 204.912 178.39 204.912C179.019 204.912 179.542 204.768 179.958 204.48C180.384 204.181 180.683 203.787 180.854 203.296H182.422C182.187 204.139 181.718 204.827 181.014 205.36C180.31 205.883 179.435 206.144 178.39 206.144C177.558 206.144 176.811 205.957 176.15 205.584C175.499 205.211 174.987 204.683 174.614 204C174.24 203.307 174.054 202.507 174.054 201.6C174.054 200.693 174.235 199.899 174.598 199.216C174.96 198.533 175.467 198.011 176.118 197.648C176.779 197.275 177.536 197.088 178.39 197.088C179.222 197.088 179.958 197.269 180.598 197.632C181.238 197.995 181.728 198.496 182.07 199.136C182.422 199.765 182.598 200.48 182.598 201.28ZM181.094 200.976C181.094 200.421 180.971 199.947 180.726 199.552C180.48 199.147 180.144 198.843 179.718 198.64C179.302 198.427 178.838 198.32 178.326 198.32C177.59 198.32 176.96 198.555 176.438 199.024C175.926 199.493 175.632 200.144 175.558 200.976H181.094ZM186.076 198.656C186.332 198.155 186.694 197.765 187.164 197.488C187.644 197.211 188.225 197.072 188.908 197.072V198.576H188.524C186.892 198.576 186.076 199.461 186.076 201.232V206H184.62V197.232H186.076V198.656ZM200.494 190.928L196.11 208.72H194.67L199.038 190.928H200.494ZM217.673 197.072C218.356 197.072 218.964 197.216 219.497 197.504C220.03 197.781 220.452 198.203 220.761 198.768C221.07 199.333 221.225 200.021 221.225 200.832V206H219.785V201.04C219.785 200.165 219.566 199.499 219.129 199.04C218.702 198.571 218.121 198.336 217.385 198.336C216.628 198.336 216.025 198.581 215.577 199.072C215.129 199.552 214.905 200.251 214.905 201.168V206H213.465V201.04C213.465 200.165 213.246 199.499 212.809 199.04C212.382 198.571 211.801 198.336 211.065 198.336C210.308 198.336 209.705 198.581 209.257 199.072C208.809 199.552 208.585 200.251 208.585 201.168V206H207.129V197.232H208.585V198.496C208.873 198.037 209.257 197.685 209.737 197.44C210.228 197.195 210.766 197.072 211.353 197.072C212.089 197.072 212.74 197.237 213.305 197.568C213.87 197.899 214.292 198.384 214.569 199.024C214.814 198.405 215.22 197.925 215.785 197.584C216.35 197.243 216.98 197.072 217.673 197.072ZM227.537 206.144C226.716 206.144 225.969 205.957 225.297 205.584C224.636 205.211 224.113 204.683 223.729 204C223.356 203.307 223.169 202.507 223.169 201.6C223.169 200.704 223.361 199.915 223.745 199.232C224.14 198.539 224.673 198.011 225.345 197.648C226.017 197.275 226.769 197.088 227.601 197.088C228.433 197.088 229.185 197.275 229.857 197.648C230.529 198.011 231.057 198.533 231.441 199.216C231.836 199.899 232.033 200.693 232.033 201.6C232.033 202.507 231.831 203.307 231.425 204C231.031 204.683 230.492 205.211 229.809 205.584C229.127 205.957 228.369 206.144 227.537 206.144ZM227.537 204.864C228.06 204.864 228.551 204.741 229.009 204.496C229.468 204.251 229.836 203.883 230.113 203.392C230.401 202.901 230.545 202.304 230.545 201.6C230.545 200.896 230.407 200.299 230.129 199.808C229.852 199.317 229.489 198.955 229.041 198.72C228.593 198.475 228.108 198.352 227.585 198.352C227.052 198.352 226.561 198.475 226.113 198.72C225.676 198.955 225.324 199.317 225.057 199.808C224.791 200.299 224.657 200.896 224.657 201.6C224.657 202.315 224.785 202.917 225.041 203.408C225.308 203.899 225.66 204.267 226.097 204.512C226.535 204.747 227.015 204.864 227.537 204.864ZM238.32 197.072C239.386 197.072 240.25 197.397 240.912 198.048C241.573 198.688 241.904 199.616 241.904 200.832V206H240.464V201.04C240.464 200.165 240.245 199.499 239.808 199.04C239.37 198.571 238.773 198.336 238.016 198.336C237.248 198.336 236.634 198.576 236.176 199.056C235.728 199.536 235.504 200.235 235.504 201.152V206H234.048V197.232H235.504V198.48C235.792 198.032 236.181 197.685 236.672 197.44C237.173 197.195 237.722 197.072 238.32 197.072ZM246.158 198.432V203.6C246.158 204.027 246.249 204.331 246.43 204.512C246.611 204.683 246.926 204.768 247.374 204.768H248.446V206H247.134C246.323 206 245.715 205.813 245.31 205.44C244.905 205.067 244.702 204.453 244.702 203.6V198.432H243.566V197.232H244.702V195.024H246.158V197.232H248.446V198.432H246.158ZM254.662 197.072C255.323 197.072 255.921 197.216 256.454 197.504C256.987 197.781 257.403 198.203 257.702 198.768C258.011 199.333 258.166 200.021 258.166 200.832V206H256.726V201.04C256.726 200.165 256.507 199.499 256.07 199.04C255.633 198.571 255.035 198.336 254.278 198.336C253.51 198.336 252.897 198.576 252.438 199.056C251.99 199.536 251.766 200.235 251.766 201.152V206H250.31V194.16H251.766V198.48C252.054 198.032 252.449 197.685 252.95 197.44C253.462 197.195 254.033 197.072 254.662 197.072Z" fill="#AFAFAF"/>
<path d="M79.3758 167.604V155.52H100.428V211H86.8998V167.604H79.3758ZM109.518 182.5C109.518 173.785 111.19 166.92 114.534 161.904C117.929 156.888 123.375 154.38 130.874 154.38C138.373 154.38 143.794 156.888 147.138 161.904C150.533 166.92 152.23 173.785 152.23 182.5C152.23 191.316 150.533 198.232 147.138 203.248C143.794 208.264 138.373 210.772 130.874 210.772C123.375 210.772 117.929 208.264 114.534 203.248C111.19 198.232 109.518 191.316 109.518 182.5ZM139.462 182.5C139.462 177.383 138.905 173.456 137.79 170.72C136.675 167.933 134.37 166.54 130.874 166.54C127.378 166.54 125.073 167.933 123.958 170.72C122.843 173.456 122.286 177.383 122.286 182.5C122.286 185.945 122.489 188.808 122.894 191.088C123.299 193.317 124.11 195.141 125.326 196.56C126.593 197.928 128.442 198.612 130.874 198.612C133.306 198.612 135.13 197.928 136.346 196.56C137.613 195.141 138.449 193.317 138.854 191.088C139.259 188.808 139.462 185.945 139.462 182.5Z" fill="#02897A"/>
<path d="M111.534 255.364H109.824L106.92 257.261V258.943L109.705 257.125H109.773V267H111.534V255.364ZM118.933 267.193C121.62 267.193 123.194 265 123.194 261.188C123.194 257.403 121.598 255.205 118.933 255.205C116.262 255.205 114.672 257.398 114.666 261.188C114.666 264.994 116.24 267.188 118.933 267.193ZM118.933 265.676C117.359 265.676 116.41 264.097 116.41 261.188C116.416 258.29 117.365 256.693 118.933 256.693C120.495 256.693 121.45 258.29 121.45 261.188C121.45 264.097 120.501 265.676 118.933 265.676ZM128.853 265.045H130.382V261.966H133.461V260.438H130.382V257.364H128.853V260.438H125.779V261.966H128.853V265.045ZM150.968 261.182C150.968 257.46 148.74 255.205 145.729 255.205C142.706 255.205 140.485 257.46 140.485 261.182C140.485 264.898 142.706 267.159 145.729 267.159C148.74 267.159 150.968 264.903 150.968 261.182ZM149.229 261.182C149.229 264.017 147.729 265.557 145.729 265.557C143.723 265.557 142.229 264.017 142.229 261.182C142.229 258.347 143.723 256.807 145.729 256.807C147.729 256.807 149.229 258.347 149.229 261.182ZM153.22 270.273H154.919V265.642H155.021C155.328 266.199 155.953 267.17 157.544 267.17C159.658 267.17 161.192 265.477 161.192 262.653C161.192 259.824 159.635 258.159 157.527 258.159C155.908 258.159 155.322 259.148 155.021 259.688H154.879V258.273H153.22V270.273ZM154.885 262.636C154.885 260.812 155.68 259.602 157.163 259.602C158.703 259.602 159.476 260.903 159.476 262.636C159.476 264.386 158.68 265.722 157.163 265.722C155.703 265.722 154.885 264.472 154.885 262.636ZM167.057 267.176C168.96 267.176 170.307 266.239 170.693 264.818L169.085 264.528C168.778 265.352 168.039 265.773 167.074 265.773C165.619 265.773 164.642 264.83 164.596 263.148H170.801V262.545C170.801 259.392 168.914 258.159 166.937 258.159C164.505 258.159 162.903 260.011 162.903 262.693C162.903 265.403 164.483 267.176 167.057 267.176ZM164.602 261.875C164.67 260.636 165.568 259.562 166.949 259.562C168.267 259.562 169.13 260.54 169.136 261.875H164.602ZM172.886 267H174.585V261.67C174.585 260.528 175.465 259.705 176.67 259.705C177.022 259.705 177.42 259.767 177.556 259.807V258.182C177.386 258.159 177.051 258.142 176.835 258.142C175.812 258.142 174.937 258.722 174.619 259.659H174.528V258.273H172.886V267ZM181.688 267.193C183.131 267.193 183.944 266.46 184.268 265.807H184.336V267H185.995V261.205C185.995 258.665 183.995 258.159 182.609 258.159C181.029 258.159 179.574 258.795 179.006 260.386L180.603 260.75C180.853 260.131 181.489 259.534 182.631 259.534C183.728 259.534 184.29 260.108 184.29 261.097V261.136C184.29 261.756 183.654 261.744 182.086 261.926C180.432 262.119 178.739 262.551 178.739 264.534C178.739 266.25 180.029 267.193 181.688 267.193ZM182.057 265.83C181.097 265.83 180.404 265.398 180.404 264.557C180.404 263.648 181.211 263.324 182.194 263.193C182.745 263.119 184.052 262.972 184.296 262.727V263.852C184.296 264.886 183.472 265.83 182.057 265.83ZM192.532 258.273H190.742V256.182H189.043V258.273H187.764V259.636H189.043V264.79C189.037 266.375 190.247 267.142 191.588 267.114C192.128 267.108 192.492 267.006 192.691 266.932L192.384 265.528C192.27 265.551 192.06 265.602 191.787 265.602C191.236 265.602 190.742 265.42 190.742 264.438V259.636H192.532V258.273ZM198.193 267.176C200.653 267.176 202.261 265.375 202.261 262.676C202.261 259.96 200.653 258.159 198.193 258.159C195.733 258.159 194.125 259.96 194.125 262.676C194.125 265.375 195.733 267.176 198.193 267.176ZM198.199 265.75C196.591 265.75 195.841 264.347 195.841 262.67C195.841 261 196.591 259.58 198.199 259.58C199.795 259.58 200.545 261 200.545 262.67C200.545 264.347 199.795 265.75 198.199 265.75ZM204.358 267H206.057V261.67C206.057 260.528 206.937 259.705 208.142 259.705C208.494 259.705 208.892 259.767 209.028 259.807V258.182C208.858 258.159 208.522 258.142 208.307 258.142C207.284 258.142 206.409 258.722 206.091 259.659H206V258.273H204.358V267ZM217.238 260.403C216.886 259.045 215.823 258.159 213.937 258.159C211.965 258.159 210.568 259.199 210.568 260.744C210.568 261.983 211.318 262.807 212.954 263.17L214.431 263.494C215.272 263.682 215.664 264.057 215.664 264.602C215.664 265.278 214.943 265.807 213.829 265.807C212.812 265.807 212.159 265.369 211.954 264.511L210.312 264.761C210.596 266.307 211.88 267.176 213.84 267.176C215.948 267.176 217.409 266.057 217.409 264.477C217.409 263.244 216.624 262.483 215.022 262.114L213.636 261.795C212.676 261.568 212.261 261.244 212.266 260.653C212.261 259.983 212.988 259.506 213.954 259.506C215.011 259.506 215.499 260.091 215.698 260.676L217.238 260.403Z" fill="#22343D"/>
<path d="M126.67 293.364H124.932V301.909H124.824L118.903 293.364H117.278V305H119.034V296.466H119.142L125.057 305H126.67V293.364ZM132.971 305.176C135.432 305.176 137.039 303.375 137.039 300.676C137.039 297.96 135.432 296.159 132.971 296.159C130.511 296.159 128.903 297.96 128.903 300.676C128.903 303.375 130.511 305.176 132.971 305.176ZM132.977 303.75C131.369 303.75 130.619 302.347 130.619 300.67C130.619 299 131.369 297.58 132.977 297.58C134.574 297.58 135.324 299 135.324 300.67C135.324 302.347 134.574 303.75 132.977 303.75ZM143.21 296.273H141.42V294.182H139.721V296.273H138.443V297.636H139.721V302.79C139.715 304.375 140.926 305.142 142.266 305.114C142.806 305.108 143.17 305.006 143.369 304.932L143.062 303.528C142.948 303.551 142.738 303.602 142.465 303.602C141.914 303.602 141.42 303.42 141.42 302.438V297.636H143.21V296.273ZM145.289 305H146.988V296.273H145.289V305ZM146.147 294.926C146.732 294.926 147.221 294.472 147.221 293.915C147.221 293.358 146.732 292.898 146.147 292.898C145.556 292.898 145.073 293.358 145.073 293.915C145.073 294.472 145.556 294.926 146.147 294.926ZM153.627 296.273H151.746V295.489C151.746 294.716 152.064 294.295 152.894 294.295C153.246 294.295 153.496 294.375 153.655 294.426L154.053 293.051C153.814 292.96 153.32 292.818 152.632 292.818C151.252 292.818 150.041 293.625 150.041 295.261V296.273H148.695V297.636H150.041V305H151.746V297.636H153.627V296.273ZM155.58 305H157.278V296.273H155.58V305ZM156.438 294.926C157.023 294.926 157.511 294.472 157.511 293.915C157.511 293.358 157.023 292.898 156.438 292.898C155.847 292.898 155.364 293.358 155.364 293.915C155.364 294.472 155.847 294.926 156.438 294.926ZM163.44 305.176C165.503 305.176 166.838 303.938 167.025 302.239H165.372C165.156 303.182 164.423 303.739 163.451 303.739C162.014 303.739 161.088 302.54 161.088 300.636C161.088 298.767 162.031 297.591 163.451 297.591C164.531 297.591 165.19 298.273 165.372 299.091H167.025C166.843 297.33 165.406 296.159 163.423 296.159C160.963 296.159 159.372 298.011 159.372 300.676C159.372 303.307 160.906 305.176 163.44 305.176ZM171.582 305.193C173.025 305.193 173.838 304.46 174.161 303.807H174.23V305H175.889V299.205C175.889 296.665 173.889 296.159 172.502 296.159C170.923 296.159 169.468 296.795 168.9 298.386L170.497 298.75C170.747 298.131 171.383 297.534 172.525 297.534C173.622 297.534 174.184 298.108 174.184 299.097V299.136C174.184 299.756 173.548 299.744 171.98 299.926C170.326 300.119 168.633 300.551 168.633 302.534C168.633 304.25 169.923 305.193 171.582 305.193ZM171.951 303.83C170.991 303.83 170.298 303.398 170.298 302.557C170.298 301.648 171.105 301.324 172.088 301.193C172.639 301.119 173.945 300.972 174.19 300.727V301.852C174.19 302.886 173.366 303.83 171.951 303.83ZM182.425 296.273H180.636V294.182H178.937V296.273H177.658V297.636H178.937V302.79C178.931 304.375 180.141 305.142 181.482 305.114C182.022 305.108 182.386 305.006 182.584 304.932L182.278 303.528C182.164 303.551 181.954 303.602 181.681 303.602C181.13 303.602 180.636 303.42 180.636 302.438V297.636H182.425V296.273ZM184.505 305H186.203V296.273H184.505V305ZM185.363 294.926C185.948 294.926 186.436 294.472 186.436 293.915C186.436 293.358 185.948 292.898 185.363 292.898C184.772 292.898 184.289 293.358 184.289 293.915C184.289 294.472 184.772 294.926 185.363 294.926ZM192.365 305.176C194.825 305.176 196.433 303.375 196.433 300.676C196.433 297.96 194.825 296.159 192.365 296.159C189.905 296.159 188.297 297.96 188.297 300.676C188.297 303.375 189.905 305.176 192.365 305.176ZM192.371 303.75C190.763 303.75 190.013 302.347 190.013 300.67C190.013 299 190.763 297.58 192.371 297.58C193.967 297.58 194.717 299 194.717 300.67C194.717 302.347 193.967 303.75 192.371 303.75ZM200.228 299.818C200.228 298.426 201.081 297.631 202.262 297.631C203.416 297.631 204.115 298.386 204.115 299.653V305H205.814V299.449C205.814 297.29 204.626 296.159 202.842 296.159C201.53 296.159 200.672 296.767 200.268 297.693H200.16V296.273H198.53V305H200.228V299.818ZM214.832 298.403C214.48 297.045 213.417 296.159 211.531 296.159C209.559 296.159 208.161 297.199 208.161 298.744C208.161 299.983 208.911 300.807 210.548 301.17L212.025 301.494C212.866 301.682 213.258 302.057 213.258 302.602C213.258 303.278 212.536 303.807 211.423 303.807C210.406 303.807 209.752 303.369 209.548 302.511L207.906 302.761C208.19 304.307 209.474 305.176 211.434 305.176C213.542 305.176 215.002 304.057 215.002 302.477C215.002 301.244 214.218 300.483 212.616 300.114L211.23 299.795C210.269 299.568 209.855 299.244 209.86 298.653C209.855 297.983 210.582 297.506 211.548 297.506C212.605 297.506 213.093 298.091 213.292 298.676L214.832 298.403Z" fill="#22343D"/>
<path d="M110.278 343H117.307V341.489H112.034V331.364H110.278V343ZM121.913 343.193C123.356 343.193 124.169 342.46 124.493 341.807H124.561V343H126.22V337.205C126.22 334.665 124.22 334.159 122.834 334.159C121.254 334.159 119.799 334.795 119.231 336.386L120.828 336.75C121.078 336.131 121.714 335.534 122.856 335.534C123.953 335.534 124.515 336.108 124.515 337.097V337.136C124.515 337.756 123.879 337.744 122.311 337.926C120.657 338.119 118.964 338.551 118.964 340.534C118.964 342.25 120.254 343.193 121.913 343.193ZM122.282 341.83C121.322 341.83 120.629 341.398 120.629 340.557C120.629 339.648 121.436 339.324 122.419 339.193C122.97 339.119 124.277 338.972 124.521 338.727V339.852C124.521 340.886 123.697 341.83 122.282 341.83ZM130.382 337.818C130.382 336.426 131.234 335.631 132.416 335.631C133.569 335.631 134.268 336.386 134.268 337.653V343H135.967V337.449C135.967 335.29 134.779 334.159 132.995 334.159C131.683 334.159 130.825 334.767 130.421 335.693H130.313V334.273H128.683V343H130.382V337.818ZM141.712 343.17C143.303 343.17 143.928 342.199 144.235 341.642H144.377V343H146.036V331.364H144.337V335.688H144.235C143.928 335.148 143.349 334.159 141.724 334.159C139.616 334.159 138.064 335.824 138.064 338.653C138.064 341.477 139.593 343.17 141.712 343.17ZM142.087 341.722C140.57 341.722 139.78 340.386 139.78 338.636C139.78 336.903 140.553 335.602 142.087 335.602C143.57 335.602 144.366 336.812 144.366 338.636C144.366 340.472 143.553 341.722 142.087 341.722ZM148.661 343H150.36V334.273H148.661V343ZM149.519 332.926C150.104 332.926 150.593 332.472 150.593 331.915C150.593 331.358 150.104 330.898 149.519 330.898C148.928 330.898 148.445 331.358 148.445 331.915C148.445 332.472 148.928 332.926 149.519 332.926ZM154.544 337.818C154.544 336.426 155.396 335.631 156.578 335.631C157.732 335.631 158.43 336.386 158.43 337.653V343H160.129V337.449C160.129 335.29 158.942 334.159 157.158 334.159C155.845 334.159 154.987 334.767 154.584 335.693H154.476V334.273H152.845V343H154.544V337.818ZM166.267 346.455C168.488 346.455 170.204 345.438 170.204 343.193V334.273H168.539V335.688H168.414C168.113 335.148 167.511 334.159 165.886 334.159C163.778 334.159 162.227 335.824 162.227 338.602C162.227 341.386 163.812 342.869 165.875 342.869C167.477 342.869 168.096 341.966 168.403 341.409H168.511V343.125C168.511 344.494 167.574 345.085 166.284 345.085C164.869 345.085 164.318 344.375 164.017 343.875L162.557 344.477C163.017 345.545 164.182 346.455 166.267 346.455ZM166.25 341.46C164.733 341.46 163.943 340.295 163.943 338.58C163.943 336.903 164.716 335.602 166.25 335.602C167.733 335.602 168.528 336.812 168.528 338.58C168.528 340.381 167.716 341.46 166.25 341.46ZM177.253 343H179.009V338.909H181.395C184.094 338.909 185.43 337.278 185.43 335.131C185.43 332.989 184.106 331.364 181.401 331.364H177.253V343ZM179.009 337.42V332.869H181.214C182.952 332.869 183.662 333.812 183.662 335.131C183.662 336.449 182.952 337.42 181.236 337.42H179.009ZM190.013 343.193C191.456 343.193 192.269 342.46 192.593 341.807H192.661V343H194.32V337.205C194.32 334.665 192.32 334.159 190.934 334.159C189.354 334.159 187.899 334.795 187.331 336.386L188.928 336.75C189.178 336.131 189.814 335.534 190.956 335.534C192.053 335.534 192.615 336.108 192.615 337.097V337.136C192.615 337.756 191.979 337.744 190.411 337.926C188.757 338.119 187.064 338.551 187.064 340.534C187.064 342.25 188.354 343.193 190.013 343.193ZM190.382 341.83C189.422 341.83 188.729 341.398 188.729 340.557C188.729 339.648 189.536 339.324 190.519 339.193C191.07 339.119 192.377 338.972 192.621 338.727V339.852C192.621 340.886 191.797 341.83 190.382 341.83ZM200.442 346.455C202.663 346.455 204.379 345.438 204.379 343.193V334.273H202.714V335.688H202.589C202.288 335.148 201.686 334.159 200.061 334.159C197.953 334.159 196.402 335.824 196.402 338.602C196.402 341.386 197.987 342.869 200.05 342.869C201.652 342.869 202.271 341.966 202.578 341.409H202.686V343.125C202.686 344.494 201.749 345.085 200.459 345.085C199.044 345.085 198.493 344.375 198.192 343.875L196.732 344.477C197.192 345.545 198.357 346.455 200.442 346.455ZM200.425 341.46C198.908 341.46 198.118 340.295 198.118 338.58C198.118 336.903 198.891 335.602 200.425 335.602C201.908 335.602 202.703 336.812 202.703 338.58C202.703 340.381 201.891 341.46 200.425 341.46ZM210.619 343.176C212.522 343.176 213.869 342.239 214.255 340.818L212.647 340.528C212.341 341.352 211.602 341.773 210.636 341.773C209.182 341.773 208.204 340.83 208.159 339.148H214.363V338.545C214.363 335.392 212.477 334.159 210.5 334.159C208.068 334.159 206.466 336.011 206.466 338.693C206.466 341.403 208.045 343.176 210.619 343.176ZM208.164 337.875C208.233 336.636 209.13 335.562 210.511 335.562C211.829 335.562 212.693 336.54 212.699 337.875H208.164ZM222.988 336.403C222.636 335.045 221.573 334.159 219.687 334.159C217.715 334.159 216.318 335.199 216.318 336.744C216.318 337.983 217.068 338.807 218.704 339.17L220.181 339.494C221.022 339.682 221.414 340.057 221.414 340.602C221.414 341.278 220.693 341.807 219.579 341.807C218.562 341.807 217.909 341.369 217.704 340.511L216.062 340.761C216.346 342.307 217.63 343.176 219.59 343.176C221.698 343.176 223.159 342.057 223.159 340.477C223.159 339.244 222.374 338.483 220.772 338.114L219.386 337.795C218.426 337.568 218.011 337.244 218.016 336.653C218.011 335.983 218.738 335.506 219.704 335.506C220.761 335.506 221.249 336.091 221.448 336.676L222.988 336.403Z" fill="#22343D"/>
</g>
<defs>
<filter id="filter0_d_16_64" x="0" y="0" width="338.649" height="472" filterUnits="userSpaceOnUse" color-interpolation-filters="sRGB">
<feFlood flood-opacity="0" result="BackgroundImageFix"/>
<feColorMatrix in="SourceAlpha" type="matrix" values="0 0 0 0 0 0 0 0 0 0 0 0 0 0 0 0 0 0 127 0" result="hardAlpha"/>
<feOffset dy="2"/>
<feGaussianBlur stdDeviation="4"/>
<feColorMatrix type="matrix" values="0 0 0 0 0 0 0 0 0 0 0 0 0 0 0 0 0 0 0.25 0"/>
<feBlend mode="normal" in2="BackgroundImageFix" result="effect1_dropShadow_16_64"/>
<feBlend mode="normal" in="SourceGraphic" in2="effect1_dropShadow_16_64" result="shape"/>
</filter>
<clipPath id="clip0_16_64">
<rect width="16" height="29" fill="white" transform="translate(164 158)"/>
</clipPath>
</defs>
</svg>
